<?xml version="1.0" encoding="utf-8"?>
<!-- Generator: Adobe Illustrator 24.0.1, SVG Export Plug-In . SVG Version: 6.00 Build 0)  -->
<svg version="1.1" id="Layer_1" xmlns="http://www.w3.org/2000/svg" xmlns:xlink="http://www.w3.org/1999/xlink" x="0px" y="0px"
	 viewBox="0 0 850.39 850.39" style="enable-background:new 0 0 850.39 850.39;" xml:space="preserve">
<style type="text/css">
	.st0{fill:none;stroke:#000000;stroke-width:45.6549;stroke-miterlimit:10;}
	.st1{stroke:#000000;stroke-width:18.5392;stroke-miterlimit:10;}
	.st2{fill:none;stroke:#000000;stroke-width:18.5388;stroke-miterlimit:10;}
</style>
<g>
	<path class="st0" d="M743.33,658.46H108.61c-6.6,0-12-5.4-12-12V185.69c0-6.6,5.4-12,12-12h634.72c6.6,0,12,5.4,12,12v460.78
		C755.33,653.06,749.93,658.46,743.33,658.46z"/>
	<path d="M269.92,389.09c16.31-14.32,32.61-28.64,48.92-42.95c4.42,4.36,57.57,56.57,90.53,83.18c5.08,4.1,14.89,11.8,27.01,10.91
		c11.39-0.84,19.24-8.86,22.63-12.27c16.28-16.38,45.83-43.2,85.42-78.86c19,20.85,35.84,34.8,47.7,43.64
		c6.85,5.1,14.61,10.42,24.09,9.32c12.39-1.44,19.76-12.92,20.2-13.64c3.86-6.21,4.13-12.28,4.2-14.49
		c0.65-20.24,0.05-46.54-0.21-56.2c-0.05-1.72-0.08-2.58-0.09-3.41c-0.75-32.13,0.96-66.08,0.96-66.08
		c0.35-6.89,0.71-12.62-3.4-16.65c-4.74-4.64-12.61-4.27-16.06-4.09c-3.21,0.17-28.73-0.09-79.77-0.59
		c-25.81-0.26-38.71-0.38-38.81-0.39c-7.86-0.43-13.3-0.94-21.11,0.53c-7.25,1.36-19.64,3.69-25.07,12.73
		c-5.01,8.34-1.47,18.07,0.21,22.72c3.94,10.86,10.86,15.8,27.04,30.46c6.17,5.59,15.15,13.92,25.8,24.55
		c-25.76,22.94-51.52,45.87-77.28,68.81c-21.76-18.38-43.67-37.25-65.71-56.59c-15.85-13.91-31.42-27.78-46.73-41.59
		c-26.04,22.05-52.08,44.09-78.12,66.14C251.5,365.87,260.71,377.48,269.92,389.09z"/>
	<path class="st1" d="M344.82,647.85c-0.15-3.41-0.35-8.3-0.54-14.2c-0.59-18.4-0.25-20.83,0.27-23.02
		c2.87-12.06,11.82-19.57,12.84-20.4c13.3-10.87,30.19-9.37,33.89-9.04c2.54,0.23,4.37,0.58,5.89,1.02
		c3.73,1.07,6.48,2.31,7.35,2.72c8.54,4.09,22.98,4.05,23.58,4.05c4.03-0.03,11.46-0.09,19.77-3.27c0,0,12.86-4.91,17.54-5.29
		c2.58-0.21,5.14-0.08,5.14-0.08c1.81,0.1,13.86,0.72,22.69,7.35c7.15,5.36,9.37,12.53,11.67,20.37c2.27,7.73,5.17,22.22,0.83,41.29
		C452.09,648.84,398.45,648.34,344.82,647.85z"/>
	<path class="st2" d="M426.13,466.79c-25.85,0.32-46.45,21.09-46.29,44.83c0.16,24.14,21.76,44.86,48.01,44.3
		c26.91-0.57,47.42-23.27,45.72-47.5C471.98,485.79,451.36,466.48,426.13,466.79z"/>
	<path class="st1" d="M140.39,645.72c-0.15-3.41-0.35-8.3-0.54-14.2c-0.59-18.4-0.25-20.83,0.27-23.02
		c2.87-12.06,11.82-19.57,12.84-20.4c13.3-10.87,30.19-9.37,33.89-9.04c2.54,0.23,4.37,0.58,5.89,1.02
		c3.73,1.07,6.48,2.31,7.35,2.72c8.54,4.09,22.98,4.05,23.58,4.05c4.03-0.03,11.46-0.09,19.77-3.27c0,0,12.86-4.91,17.54-5.29
		c2.58-0.21,5.14-0.08,5.14-0.08c1.81,0.1,13.86,0.72,22.69,7.35c7.15,5.36,9.37,12.53,11.67,20.37c2.27,7.73,5.17,22.22,0.83,41.29
		C247.67,646.72,194.03,646.22,140.39,645.72z"/>
	<path class="st2" d="M221.7,464.66c-25.85,0.32-46.45,21.09-46.29,44.83c0.16,24.14,21.76,44.86,48.01,44.3
		c26.91-0.57,47.42-23.27,45.72-47.5C267.56,483.66,246.93,464.35,221.7,464.66z"/>
	<path class="st1" d="M550.7,647.85c-0.15-3.41-0.35-8.3-0.54-14.2c-0.59-18.4-0.25-20.83,0.27-23.02
		c2.87-12.06,11.82-19.57,12.84-20.4c13.3-10.87,30.19-9.37,33.89-9.04c2.54,0.23,4.37,0.58,5.89,1.02
		c3.73,1.07,6.48,2.31,7.35,2.72c8.54,4.09,22.98,4.05,23.58,4.05c4.03-0.03,11.46-0.09,19.77-3.27c0,0,12.86-4.91,17.54-5.29
		c2.58-0.21,5.14-0.08,5.14-0.08c1.81,0.1,13.86,0.72,22.69,7.35c7.15,5.36,9.37,12.53,11.67,20.37c2.27,7.73,5.17,22.22,0.83,41.29
		C657.98,648.84,604.34,648.34,550.7,647.85z"/>
	<path class="st2" d="M632.01,466.79c-25.85,0.32-46.45,21.09-46.29,44.83c0.16,24.14,21.76,44.86,48.01,44.3
		c26.91-0.57,47.42-23.27,45.72-47.5C677.86,485.79,657.24,466.48,632.01,466.79z"/>
</g>
</svg>
