<?xml version="1.0" encoding="utf-8"?>
<!-- Generator: Adobe Illustrator 24.0.1, SVG Export Plug-In . SVG Version: 6.00 Build 0)  -->
<svg version="1.1" id="Layer_1" xmlns="http://www.w3.org/2000/svg" xmlns:xlink="http://www.w3.org/1999/xlink" x="0px" y="0px"
	 viewBox="0 0 850.39 850.39" style="enable-background:new 0 0 850.39 850.39;" xml:space="preserve">
<style type="text/css">
	.st0{fill:none;stroke:#000000;stroke-width:46.0392;stroke-miterlimit:10;}
	.st1{stroke:#FFFFFF;stroke-width:10.5722;stroke-miterlimit:10;}
	.st2{stroke:#FFFFFF;stroke-width:11.3907;stroke-miterlimit:10;}
	.st3{fill:#FFFFFF;stroke:#FFFFFF;stroke-width:10.9934;stroke-miterlimit:10;}
</style>
<g>
	<path class="st0" d="M799.72,673.19H159.46c-6.6,0-12-5.4-12-12V196.33c0-6.6,5.4-12,12-12h640.27c6.6,0,12,5.4,12,12v464.86
		C811.72,667.79,806.32,673.19,799.72,673.19z"/>
	<path d="M233.94,461.91c24.73-21.19,49.46-42.38,74.19-63.57c5.6,5.31,72.85,68.94,114.57,101.37
		c6.42,4.99,18.85,14.38,34.19,13.29c14.42-1.02,24.35-10.8,28.64-14.96c20.61-19.96,58-52.64,108.1-96.1
		c24.04,25.41,45.35,42.41,60.36,53.17c8.66,6.21,18.5,12.7,30.49,11.36c15.68-1.75,25-15.75,25.56-16.62
		c4.88-7.57,5.22-14.96,5.31-17.66c0.83-24.67,0.06-56.71-0.27-68.48c-0.06-2.1-0.1-3.15-0.12-4.15
		c-0.95-39.16,1.22-80.52,1.22-80.52c0.44-8.4,0.9-15.38-4.3-20.29c-6-5.66-15.96-5.2-20.33-4.99c-4.06,0.2-36.35-0.11-100.94-0.72
		c-32.66-0.31-48.99-0.47-49.12-0.47c-9.95-0.52-16.83-1.15-26.72,0.64c-9.18,1.66-24.86,4.49-31.72,15.51
		c-6.33,10.17-1.86,22.02,0.27,27.68c4.99,13.24,13.75,19.26,34.22,37.12c7.81,6.81,19.17,16.96,32.65,29.91
		c-32.6,27.95-65.2,55.9-97.8,83.85c-27.54-22.4-55.27-45.39-83.15-68.96c-20.06-16.95-39.77-33.85-59.13-50.68
		c-37.39,29.35-74.79,58.7-112.18,88.05c5.91,3.79,14.55,10.32,22.47,20.68C227.81,446.08,231.78,455.46,233.94,461.91z"/>
	<path class="st1" d="M14.84,698.26c-0.24-5.83-0.57-14.2-0.88-24.27c-0.96-31.46-0.4-35.61,0.45-39.34
		c4.69-20.62,19.31-33.45,20.98-34.88c21.74-18.58,49.33-16.02,55.37-15.46c4.15,0.39,7.13,1,9.62,1.74
		c6.1,1.83,10.59,3.95,12.01,4.66c13.96,6.99,37.55,6.93,38.53,6.92c6.59-0.06,18.72-0.16,32.31-5.59c0,0,21.01-8.4,28.67-9.04
		c4.21-0.35,8.4-0.13,8.4-0.13c2.96,0.18,22.65,1.22,37.08,12.56c11.68,9.17,15.3,21.43,19.06,34.81
		c3.71,13.22,8.45,37.98,1.35,70.58C190.14,699.97,102.49,699.11,14.84,698.26z"/>
	<path class="st2" d="M145.03,408.6c-45.98,0.57-82.63,38.45-82.34,81.74c0.29,44.01,38.7,81.79,85.39,80.77
		c47.87-1.05,84.33-42.43,81.32-86.6C226.59,443.23,189.91,408.04,145.03,408.6z"/>
	<path class="st3" d="M196.81,569.53c-11.28-6.31-20.89,0.69-39.08,2.07c-22.1,1.68-35.33-6.47-39.05-0.6
		c-1.81,2.85,0.04,7.33,1.62,9.7c7.12,10.71,28.19,7.9,49.45,5.08c8.47-1.13,31.89-4.6,32.16-10.85
		C202.02,572.44,198.42,570.43,196.81,569.53z"/>
</g>
</svg>
