<?xml version="1.0" encoding="utf-8"?>
<!-- Generator: Adobe Illustrator 24.0.1, SVG Export Plug-In . SVG Version: 6.00 Build 0)  -->
<svg version="1.1" id="Layer_1" xmlns="http://www.w3.org/2000/svg" xmlns:xlink="http://www.w3.org/1999/xlink" x="0px" y="0px"
	 viewBox="0 0 850.39 850.39" style="enable-background:new 0 0 850.39 850.39;" xml:space="preserve">
<style type="text/css">
	.st0{fill:none;stroke:#000000;stroke-width:52.8748;stroke-miterlimit:10;}
</style>
<path class="st0" d="M799.32,705.92H60.43c-6.6,0-12-5.4-12-12V156.48c0-6.6,5.4-12,12-12h738.89c6.6,0,12,5.4,12,12v537.44
	C811.32,700.52,805.92,705.92,799.32,705.92z"/>
<path d="M161.86,485.53c23.7-20.04,47.4-40.08,71.09-60.12c6.43,6.1,83.67,79.18,131.58,116.42c7.38,5.73,21.65,16.52,39.26,15.27
	c16.56-1.17,27.97-12.4,32.89-17.18c23.67-22.93,66.61-60.46,124.15-110.37c27.61,29.18,52.08,48.7,69.33,61.07
	c9.95,7.14,21.24,14.58,35.02,13.04c18.01-2.01,28.71-18.09,29.36-19.08c5.61-8.69,6-17.18,6.1-20.28
	c0.95-28.33,0.07-65.13-0.3-78.65c-0.07-2.41-0.11-3.61-0.14-4.77c-1.09-44.97,1.4-92.48,1.4-92.48c0.51-9.64,1.04-17.67-4.94-23.3
	c-6.89-6.5-18.33-5.97-23.34-5.73c-4.66,0.23-41.75-0.12-115.93-0.83c-37.51-0.36-56.26-0.54-56.41-0.54
	c-11.43-0.6-19.33-1.32-30.68,0.74c-10.54,1.91-28.55,5.16-36.43,17.81c-7.27,11.68-2.14,25.29,0.31,31.79
	c5.73,15.2,15.79,22.12,39.3,42.64c8.97,7.82,22.01,19.48,37.49,34.35c-37.44,32.1-74.88,64.2-112.32,96.3
	c-31.63-25.73-63.47-52.13-95.5-79.2c-23.03-19.47-45.67-38.88-67.91-58.21c-37.85,30.85-75.69,61.71-113.54,92.56
	c6.3,7.23,12.65,14.7,19.02,22.41C148.07,468.08,155.12,476.86,161.86,485.53z"/>
</svg>
