<?xml version="1.0" encoding="utf-8"?>
<!-- Generator: Adobe Illustrator 24.0.1, SVG Export Plug-In . SVG Version: 6.00 Build 0)  -->
<svg version="1.1" id="Layer_1" xmlns="http://www.w3.org/2000/svg" xmlns:xlink="http://www.w3.org/1999/xlink" x="0px" y="0px"
	 viewBox="0 0 850.39 850.39" style="enable-background:new 0 0 850.39 850.39;" xml:space="preserve">
<style type="text/css">
	.st0{fill:#58595B;}
</style>
<rect x="622.61" y="539.37" class="st0" width="209.75" height="129.67"/>
<rect x="18.03" y="566.71" class="st0" width="212.65" height="102.34"/>
<rect x="230.69" y="470.9" width="391.92" height="198.14"/>
<g>
	<path d="M445.71,222.35c-0.1,59.62-0.2,119.25-0.3,178.87c0.07,2.57,0.66,14.6,10.45,24.31c2.12,2.1,10.82,10.2,24.23,10.22
		c11.85,0.02,19.81-6.27,21.96-8.03c6.45-5.26,9.42-11.47,10.69-14.63c1.04,0.12,20.65,2.09,32.48-13.24
		c9.24-11.97,6.94-25.7,6.53-27.95c14.11-5.48,23.65-18.78,24.22-33.7c0.54-14.12-7.04-27.44-19.54-34.38
		c1.05-2.11,7.25-15.14,1.51-30.29c-5.81-15.33-19.34-20.95-21.51-21.81c0.36-1.61,3.09-14.74-6.06-26.05
		c-9.33-11.53-23.1-11.4-24.69-11.36c-1.04-2.96-4.09-10.38-11.81-16.05c-2.49-1.83-8.77-6.31-17.87-6.36
		c-10.95-0.06-18.36,6.34-20.75,8.63C446.36,209.11,445.78,220.03,445.71,222.35z"/>
	<path d="M429.69,222.35c0.1,59.62,0.2,119.25,0.3,178.87c-0.07,2.57-0.66,14.6-10.45,24.31c-2.12,2.1-10.82,10.2-24.23,10.22
		c-11.85,0.02-19.81-6.27-21.96-8.03c-6.45-5.26-9.42-11.47-10.69-14.63c-1.04,0.12-20.65,2.09-32.48-13.24
		c-9.24-11.97-6.94-25.7-6.53-27.95c-14.11-5.48-23.65-18.78-24.22-33.7c-0.54-14.12,7.04-27.44,19.54-34.38
		c-1.05-2.11-7.25-15.14-1.51-30.29c5.81-15.33,19.34-20.95,21.51-21.81c-0.36-1.61-3.09-14.74,6.06-26.05
		c9.33-11.53,23.1-11.4,24.69-11.36c1.04-2.96,4.09-10.38,11.81-16.05c2.49-1.83,8.77-6.31,17.87-6.36
		c10.95-0.06,18.36,6.34,20.75,8.63C429.05,209.11,429.62,220.03,429.69,222.35z"/>
</g>
</svg>
