<?xml version="1.0" encoding="utf-8"?>
<!-- Generator: Adobe Illustrator 24.0.1, SVG Export Plug-In . SVG Version: 6.00 Build 0)  -->
<svg version="1.1" id="Layer_1" xmlns="http://www.w3.org/2000/svg" xmlns:xlink="http://www.w3.org/1999/xlink" x="0px" y="0px"
	 viewBox="0 0 850.39 850.39" style="enable-background:new 0 0 850.39 850.39;" xml:space="preserve">
<style type="text/css">
	.st0{fill:none;stroke:#000000;stroke-width:20.7287;stroke-miterlimit:10;}
	.st1{fill:none;stroke:#000000;stroke-width:16.8181;stroke-miterlimit:10;}
	.st2{fill:none;stroke:#000000;stroke-width:23.8927;stroke-miterlimit:10;}
</style>
<g>
	<path d="M440.81,342.57c-0.09,55.56-0.19,111.11-0.28,166.67c0.06,2.39,0.61,13.6,9.74,22.65c1.97,1.96,10.08,9.5,22.58,9.53
		c11.04,0.02,18.46-5.84,20.46-7.48c6.01-4.9,8.78-10.69,9.96-13.63c0.97,0.11,19.25,1.94,30.26-12.34
		c8.61-11.15,6.47-23.95,6.08-26.04c13.14-5.11,22.04-17.49,22.57-31.4c0.5-13.15-6.56-25.57-18.21-32.04
		c0.98-1.97,6.76-14.1,1.41-28.23c-5.41-14.29-18.02-19.52-20.04-20.32c0.34-1.5,2.88-13.74-5.65-24.27
		c-8.69-10.74-21.53-10.62-23-10.58c-0.97-2.76-3.81-9.67-11.01-14.96c-2.32-1.7-8.17-5.88-16.65-5.93
		c-10.2-0.06-17.11,5.9-19.33,8.04C441.41,330.24,440.88,340.41,440.81,342.57z"/>
	<path d="M425.88,342.57c0.09,55.56,0.19,111.11,0.28,166.67c-0.06,2.39-0.61,13.6-9.74,22.65c-1.97,1.96-10.08,9.5-22.58,9.53
		c-11.04,0.02-18.46-5.84-20.46-7.48c-6.01-4.9-8.78-10.69-9.96-13.63c-0.97,0.11-19.25,1.94-30.26-12.34
		c-8.61-11.15-6.47-23.95-6.08-26.04c-13.14-5.11-22.04-17.49-22.57-31.4c-0.5-13.15,6.56-25.57,18.21-32.04
		c-0.98-1.97-6.76-14.1-1.41-28.23c5.41-14.29,18.02-19.52,20.04-20.32c-0.34-1.5-2.88-13.74,5.65-24.27
		c8.69-10.74,21.53-10.62,23-10.58c0.97-2.76,3.81-9.67,11.01-14.96c2.32-1.7,8.17-5.88,16.65-5.93c10.2-0.06,17.11,5.9,19.33,8.04
		C425.28,330.24,425.82,340.41,425.88,342.57z"/>
</g>
<circle class="st0" cx="427.33" cy="419.95" r="306.55"/>
<circle class="st1" cx="427.33" cy="419.95" r="248.72"/>
<path class="st2" d="M440.01,42.28c0.03,63.06,0.05,126.13,0.08,189.19"/>
<path class="st2" d="M440.01,639.52c0.03,63.06,0.05,126.13,0.08,189.19"/>
<path class="st2" d="M242.72,435.86c-63.06,0.03-126.13,0.05-189.19,0.08"/>
<path class="st2" d="M821.52,435.9c-63.06,0.03-126.13,0.05-189.19,0.08"/>
</svg>
