<?xml version="1.0" encoding="utf-8"?>
<!-- Generator: Adobe Illustrator 24.0.1, SVG Export Plug-In . SVG Version: 6.00 Build 0)  -->
<svg version="1.1" id="Layer_1" xmlns="http://www.w3.org/2000/svg" xmlns:xlink="http://www.w3.org/1999/xlink" x="0px" y="0px"
	 viewBox="0 0 850.39 850.39" style="enable-background:new 0 0 850.39 850.39;" xml:space="preserve">
<path d="M169.06,492.04c-2.8,3.08-7.1,8.68-9.14,16.7c-2.98,11.68,0.62,21.44,2.94,27.46c5.87,15.26,15.68,23.75,32.8,38.19
	c18.28,15.42,27.66,23.14,39.71,23.16c13.3,0.02,23.59-7.82,28.72-12.47c38.4-39.71,78.53-79.65,120.46-119.67
	c13.67-13.05,27.33-25.9,40.95-38.56c17.12,17.84,34.48,35.74,52.08,53.67c35.62,36.29,71.11,71.6,106.4,105.95
	c3.95,3.22,13.64,10.13,27.18,10.54c14.52,0.44,25.01-6.84,30.61-10.73c2.68-1.86,3.96-3.06,16.3-15.9
	c21.41-22.29,22.68-24.03,24.25-26.64c4.57-7.6,11.51-19.13,8.75-33c-2.05-10.28-8.48-17.12-11.93-20.28
	c-76.07-75.8-152.14-151.61-228.21-227.41c-2.8-2.17-13.37-9.8-28.63-9.14c-13.72,0.59-22.92,7.54-25.84,9.94
	C320.67,339.9,244.86,415.97,169.06,492.04z"/>
</svg>
