<?xml version="1.0" encoding="utf-8"?>
<!-- Generator: Adobe Illustrator 24.0.1, SVG Export Plug-In . SVG Version: 6.00 Build 0)  -->
<svg version="1.1" id="Layer_1" xmlns="http://www.w3.org/2000/svg" xmlns:xlink="http://www.w3.org/1999/xlink" x="0px" y="0px"
	 viewBox="0 0 850.39 850.39" style="enable-background:new 0 0 850.39 850.39;" xml:space="preserve">
<style type="text/css">
	.st0{fill:none;}
</style>
<path d="M186.43,542.94c-0.56,1.3-1.25,3.32-1.43,5.85c-0.45,6.49,2.88,11.37,4.49,13.36c1.16,1.43,4.08,4.63,8.94,6.33
	c8.61,3.01,16.16-1.07,17.45-1.79c69.7-69.59,139.4-139.18,209.11-208.77c115.36,115.93,200.19,200.42,208.26,207.4
	c1.38,1.19,5.37,4.67,10.98,5.02c5.92,0.37,10.07-2.58,11.66-3.74c1-0.74,7.41-5.61,8-14.3c0.44-6.42-2.56-11.08-3.57-12.51
	c-18.5-18.72-216.84-219.38-226.98-226.72c-4.63-3.36-9.19-3.32-9.19-3.32s-4.46,0.04-8.94,3.32
	C405.21,320.39,206.35,522.66,186.43,542.94z"/>
</svg>
