<?xml version="1.0" encoding="utf-8"?>
<!-- Generator: Adobe Illustrator 24.0.1, SVG Export Plug-In . SVG Version: 6.00 Build 0)  -->
<svg version="1.1" id="Layer_1" xmlns="http://www.w3.org/2000/svg" xmlns:xlink="http://www.w3.org/1999/xlink" x="0px" y="0px"
	 viewBox="0 0 850.39 850.39" style="enable-background:new 0 0 850.39 850.39;" xml:space="preserve">
<style type="text/css">
	.st0{stroke:#000000;stroke-width:1.5218;stroke-miterlimit:10;}
	.st1{stroke:#FFFFFF;stroke-width:10.4645;stroke-miterlimit:10;}
	.st2{fill:#FFFFFF;stroke:#000000;stroke-width:10.4645;stroke-miterlimit:10;}
</style>
<g>
	<path class="st0" d="M34.75,294.1c-0.72,5.41,2.34,10.55,5.85,13.43c1.99,1.63,3.89,2.35,5.48,2.92
		c10.57,3.8,20.24,5.75,24.12,6.58c1.95,0.42,6.72,1.68,16.27,4.2c8.59,2.27,17.08,4.52,26.5,7.49c8.75,2.76,26.87,8.87,40.79,12.69
		c1.68,0.46,5.34,1.44,10.19,1.4c6.13-0.05,10.69-1.7,12.62-2.39c12.5-4.48,25.26-8.24,37.83-12.52c4.78-1.63,13.42-4.54,24.95-7.4
		c12.78-3.17,25.24-7.6,38.11-10.42c3.26-0.71,9.81-2.09,13.24-7.4c0.56-0.86,2.58-4.1,1.93-8.13c-0.69-4.23-3.9-6.71-5.66-8.07
		c-3.65-2.82-7.08-3.48-11.52-4.54c-5.61-1.34-11.03-3.39-16.63-4.75c-10.87-2.63-19.02-5.24-33.89-9.99
		c-11.83-3.78-14.77-5.11-23.87-7.73c-2.25-0.65-6.92-1.97-13.65-4.03c-5.21-1.59-5.1-1.62-7.73-2.38
		c-8.07-2.33-12.19-3.49-16.62-3.48c-4.79,0.02-8.29,1.27-10.98,2.21c-13.41,4.67-27.22,8.11-40.76,12.43
		c-11.16,3.56-22.01,6.81-28.85,8.86c-5.88,1.76-11.67,3.83-17.63,5.33c-15.05,3.78-24.54,4.21-28.55,11.12
		C35.21,291.41,34.87,293.18,34.75,294.1z"/>
	<path d="M45.67,304.04c0.02,8.46,0.04,16.92,0.06,25.38c-0.37,0.22-6.98,4.22-7.15,12.11c-0.16,7.7,5.98,11.97,6.4,12.25
		c-2.86,14.12-5.73,28.25-8.59,42.37c4.26,0.89,9.63,1.63,15.85,1.61c7-0.03,12.97-1.02,17.55-2.12
		c-2.6-14.12-5.21-28.24-7.81-42.36c0.55-0.36,6.11-4.12,6.4-11.01c0.22-5.27-2.74-10.28-7.56-12.84
		c-0.16-8.59-0.32-17.18-0.48-25.77C55.45,303.78,50.56,303.91,45.67,304.04z"/>
</g>
<path d="M32.99,584.67c-0.24-5.75-0.56-13.99-0.87-23.92c-0.95-31.01-0.4-35.1,0.44-38.78c4.62-20.33,19.03-32.97,20.68-34.38
	c21.43-18.31,48.62-15.79,54.58-15.23c4.09,0.38,7.03,0.99,9.48,1.72c6.01,1.8,10.44,3.89,11.84,4.59
	c13.76,6.89,37.01,6.83,37.97,6.82c6.49-0.06,18.46-0.16,31.85-5.51c0,0,20.71-8.28,28.26-8.91c4.15-0.35,8.28-0.13,8.28-0.13
	c2.92,0.18,22.32,1.2,36.55,12.38c11.51,9.04,15.08,21.12,18.79,34.31c3.66,13.03,8.33,37.44,1.33,69.57
	C205.76,586.34,119.37,585.51,32.99,584.67z"/>
<path d="M161.31,299.16c-45.32,0.57-81.44,37.9-81.16,80.57c0.29,43.38,38.14,80.61,84.16,79.61c47.18-1.03,83.12-41.82,80.15-85.36
	C241.69,333.3,205.54,298.61,161.31,299.16z"/>
<g>
	<path class="st0" d="M557.75,294.1c-0.72,5.41,2.34,10.55,5.85,13.43c1.99,1.63,3.89,2.35,5.48,2.92
		c10.57,3.8,20.24,5.75,24.12,6.58c1.95,0.42,6.72,1.68,16.27,4.2c8.59,2.27,17.08,4.52,26.5,7.49c8.75,2.76,26.87,8.87,40.79,12.69
		c1.68,0.46,5.34,1.44,10.19,1.4c6.13-0.05,10.69-1.7,12.62-2.39c12.5-4.48,25.26-8.24,37.83-12.52c4.78-1.63,13.42-4.54,24.95-7.4
		c12.78-3.17,25.24-7.6,38.11-10.42c3.26-0.71,9.81-2.09,13.24-7.4c0.56-0.86,2.58-4.1,1.93-8.13c-0.69-4.23-3.9-6.71-5.66-8.07
		c-3.65-2.82-7.08-3.48-11.52-4.54c-5.61-1.34-11.03-3.39-16.63-4.75c-10.87-2.63-19.02-5.24-33.89-9.99
		c-11.83-3.78-14.77-5.11-23.87-7.73c-2.25-0.65-6.92-1.97-13.65-4.03c-5.21-1.59-5.1-1.62-7.73-2.38
		c-8.07-2.33-12.19-3.49-16.62-3.48c-4.79,0.02-8.29,1.27-10.98,2.21c-13.41,4.67-27.22,8.11-40.76,12.43
		c-11.16,3.56-22.01,6.81-28.85,8.86c-5.88,1.76-11.67,3.83-17.63,5.33c-15.05,3.78-24.54,4.21-28.55,11.12
		C558.21,291.41,557.87,293.18,557.75,294.1z"/>
	<path d="M568.67,304.04c0.02,8.46,0.04,16.92,0.06,25.38c-0.37,0.22-6.98,4.22-7.15,12.11c-0.16,7.7,5.98,11.97,6.4,12.25
		c-2.86,14.12-5.73,28.25-8.59,42.37c4.26,0.89,9.63,1.63,15.85,1.61c7-0.03,12.97-1.02,17.55-2.12
		c-2.6-14.12-5.21-28.24-7.81-42.36c0.55-0.36,6.11-4.12,6.4-11.01c0.22-5.27-2.74-10.28-7.56-12.84
		c-0.16-8.59-0.32-17.18-0.48-25.77C578.45,303.78,573.56,303.91,568.67,304.04z"/>
</g>
<path d="M555.99,584.67c-0.24-5.75-0.56-13.99-0.87-23.92c-0.95-31.01-0.4-35.1,0.44-38.78c4.62-20.33,19.03-32.97,20.68-34.38
	c21.43-18.31,48.62-15.79,54.58-15.23c4.09,0.38,7.03,0.99,9.48,1.72c6.01,1.8,10.44,3.89,11.84,4.59
	c13.76,6.89,37.01,6.83,37.97,6.82c6.49-0.06,18.46-0.16,31.85-5.51c0,0,20.71-8.28,28.26-8.91c4.15-0.35,8.28-0.13,8.28-0.13
	c2.92,0.18,22.32,1.2,36.55,12.38c11.51,9.04,15.08,21.12,18.79,34.31c3.66,13.03,8.33,37.44,1.33,69.57
	C728.76,586.34,642.38,585.51,555.99,584.67z"/>
<path d="M684.31,299.16c-45.32,0.57-81.44,37.9-81.16,80.57c0.29,43.38,38.14,80.61,84.16,79.61c47.18-1.03,83.12-41.82,80.15-85.36
	C764.69,333.3,728.54,298.61,684.31,299.16z"/>
<path class="st1" d="M236.11,637.79c-0.34-8.06-0.79-19.62-1.22-33.54c-1.33-43.47-0.56-49.21,0.62-54.37
	c6.48-28.5,26.68-46.23,28.99-48.2c30.04-25.67,68.17-22.14,76.51-21.36c5.73,0.54,9.86,1.38,13.29,2.41
	c8.43,2.53,14.64,5.45,16.6,6.43c19.29,9.65,51.88,9.57,53.24,9.56c9.1-0.08,25.87-0.22,44.65-7.73c0,0,29.03-11.61,39.61-12.49
	c5.82-0.49,11.6-0.18,11.6-0.18c4.09,0.25,31.29,1.69,51.24,17.35c16.13,12.67,21.15,29.61,26.34,48.11
	c5.13,18.27,11.68,52.49,1.87,97.53C478.34,640.14,357.23,638.96,236.11,637.79z"/>
<path d="M416.01,237.52c-63.53,0.79-114.17,53.14-113.78,112.95c0.4,60.82,53.47,113.02,117.99,111.6
	c66.14-1.45,116.54-58.62,112.37-119.67C528.71,285.38,478.02,236.75,416.01,237.52z"/>
<path class="st2" d="M249.47,176.31c23.88,19.69,47.76,39.38,71.63,59.07"/>
<path class="st2" d="M595.77,180c-23.88,19.69-47.76,39.38-71.63,59.07"/>
<path class="st2" d="M428.34,100.62c-0.75,30.94-1.49,61.88-2.24,92.82"/>
</svg>
