<?xml version="1.0" encoding="utf-8"?>
<!-- Generator: Adobe Illustrator 24.0.1, SVG Export Plug-In . SVG Version: 6.00 Build 0)  -->
<svg version="1.1" id="Layer_1" xmlns="http://www.w3.org/2000/svg" xmlns:xlink="http://www.w3.org/1999/xlink" x="0px" y="0px"
	 viewBox="0 0 850.39 850.39" style="enable-background:new 0 0 850.39 850.39;" xml:space="preserve">
<style type="text/css">
	.st0{stroke:#FFFFFF;stroke-width:4.5894;stroke-miterlimit:10;}
</style>
<g>
	<path class="st0" d="M641.16,439.71c7.72-7.5,21.82-21.33,35.19-40.95c17.47-25.64,12.92-30.7,31.42-55.56
		c9.07-12.2,20.25-24.42,36.45-27.54c3.61-0.69,9.54-1.75,13.21,1.51c6.33,5.62,0.91,21.81-4.28,37.61
		c-1.35,4.11-1.51,4.04-4.92,13.93c-4.09,11.88-4.85,14.85-6.89,20.74c-2.02,5.81-6.06,17.31-13,30.24
		c-2.51,4.67-7.15,13.23-14.98,23.25c-10.86,13.89-21.61,22.61-28.75,28.34c-3.47,2.78-7.63,5.93-7.77,5.76
		c-0.3-0.36,19.81-13.09,36.36-33.88c14.96-18.81,22.35-38.34,28.15-53.7c4.93-13.05,6.83-21.65,11.81-34.67
		c0,0,3.04-7.95,5.3-17.15c0.75-3.03,1.28-6.19,1.28-6.19c0.35-2.07,0.56-3.3,0.62-4.44c0.07-1.34,0.31-6.79-2.92-9.83
		c-3.32-3.13-8.77-2.24-13.21-1.51c-2.51,0.41-4.55,1.08-5.98,1.64c5.46-28.58,4.16-51.22,1.81-66.97
		c-4.43-29.67-14.49-47.63-5.77-71.42c3.79-10.35,12.11-24.44,19.85-23.63c9,0.94,13.03,21.53,18.35,43.15
		c16.99,69.07,25.47,60.68,31.46,99.1c7.09,45.49-1.08,81.08-11.38,125.93c-10,43.55-15,65.33-31.06,90.27
		c-26.61,41.32-64.99,64.38-99.19,84.93c-33.94,20.39-36.72,15.89-64.05,35.11c-22.16,15.58-50.11,35.7-69.71,71.97
		c-13.59,25.15-18.38,49.22-20.11,66.41c-14.58-17.39-43.61-57.33-47.34-113.46c-0.93-13.97-2.26-37.76,7.9-65.29
		c13.73-37.23,40.68-60.14,65.58-81.33c12.17-10.35,22.51-19.15,38.63-28.07c17.28-9.56,25.98-10.84,42.85-22.69
		C626.4,454.05,633.12,447.51,641.16,439.71z"/>
	<path class="st0" d="M227.25,447.98c-7.72-7.5-21.82-21.33-35.19-40.95c-17.47-25.64-12.92-30.7-31.42-55.56
		c-9.07-12.2-20.25-24.42-36.45-27.54c-3.61-0.69-9.54-1.75-13.21,1.51c-6.33,5.62-0.91,21.81,4.28,37.61
		c1.35,4.11,1.51,4.04,4.92,13.93c4.09,11.88,4.85,14.85,6.89,20.74c2.02,5.81,6.06,17.31,13,30.24
		c2.51,4.67,7.15,13.23,14.98,23.25c10.86,13.89,21.61,22.61,28.75,28.34c3.47,2.78,7.63,5.93,7.77,5.76
		c0.3-0.36-19.81-13.09-36.36-33.88c-14.96-18.81-22.35-38.34-28.15-53.7c-4.93-13.05-6.83-21.65-11.81-34.67
		c0,0-3.04-7.95-5.3-17.15c-0.75-3.03-1.28-6.19-1.28-6.19c-0.35-2.07-0.56-3.3-0.62-4.44c-0.07-1.34-0.31-6.79,2.92-9.83
		c3.32-3.13,8.77-2.24,13.21-1.51c2.51,0.41,4.55,1.08,5.98,1.64c-1.73-20.73-1.06-37.51-0.16-48.85
		c3.45-43.25,14.67-62.75,4.12-89.55c-3.67-9.32-11.92-24.46-19.85-23.63c-9,0.94-13.03,21.53-18.35,43.15
		c-16.99,69.07-25.47,60.68-31.46,99.1c-7.09,45.49,1.08,81.08,11.38,125.93c10,43.55,15,65.33,31.06,90.27
		c26.61,41.32,64.99,64.38,99.19,84.93c33.94,20.39,36.72,15.89,64.05,35.11c22.16,15.58,50.11,35.7,69.71,71.97
		c13.59,25.15,18.38,49.22,20.11,66.41c14.58-17.39,43.61-57.33,47.34-113.46c0.93-13.97,2.26-37.76-7.9-65.29
		c-13.73-37.23-40.68-60.14-65.58-81.33c-12.17-10.35-22.51-19.15-38.63-28.07c-17.28-9.56-25.98-10.84-42.85-22.69
		C242,462.31,235.28,455.78,227.25,447.98z"/>
	<path d="M424.38,471.96c-110.82,0-200.99-90.16-200.99-200.99S313.55,69.98,424.38,69.98s200.99,90.16,200.99,200.99
		S535.2,471.96,424.38,471.96z M436.36,350.92c-0.75,0-1.48,0.29-2.02,0.82c-0.56,0.55-0.88,1.3-0.88,2.08v95.66
		c0,0.88,0.4,1.72,1.09,2.27c0.52,0.41,1.16,0.63,1.81,0.63c0.22,0,0.43-0.02,0.64-0.07c30.57-6.95,58.62-39.67,75.04-87.52
		c0.26-0.77,0.19-1.61-0.19-2.32c-0.38-0.71-1.05-1.23-1.83-1.43c-22.96-5.9-47.71-9.3-73.57-10.12
		C436.42,350.92,436.39,350.92,436.36,350.92z M412.3,350.93c-25.87,0.82-50.62,4.23-73.56,10.13c-0.79,0.2-1.45,0.72-1.83,1.43
		c-0.39,0.71-0.45,1.55-0.19,2.32c16.41,47.84,44.46,80.56,75.03,87.51c0.21,0.05,0.43,0.07,0.64,0.07c0.65,0,1.29-0.22,1.81-0.63
		c0.69-0.55,1.09-1.39,1.09-2.27v-95.66c0-0.79-0.32-1.54-0.88-2.08c-0.54-0.53-1.27-0.82-2.02-0.82
		C412.36,350.92,412.33,350.92,412.3,350.93z M316.12,368.11c-0.33,0-0.67,0.06-0.99,0.17c-11.48,4.15-21.98,8.97-31.19,14.31
		c-0.74,0.43-1.25,1.16-1.4,2c-0.15,0.84,0.07,1.7,0.62,2.36c17.59,21.38,40.19,38.77,65.37,50.3c0.39,0.18,0.8,0.26,1.21,0.26
		c0.88,0,1.73-0.4,2.3-1.13c0.82-1.07,0.81-2.56-0.04-3.61c-13.66-16.8-24.8-37.9-33.11-62.69c-0.25-0.74-0.79-1.35-1.49-1.69
		C316.98,368.21,316.55,368.11,316.12,368.11z M532.64,368.09c-0.43,0-0.86,0.1-1.26,0.29c-0.7,0.34-1.24,0.95-1.49,1.69
		c-8.31,24.8-19.45,45.9-33.12,62.72c-0.85,1.05-0.87,2.54-0.04,3.61c0.56,0.73,1.42,1.13,2.3,1.13c0.41,0,0.82-0.08,1.21-0.26
		c25.17-11.53,47.78-28.93,65.36-50.3c0.54-0.66,0.77-1.52,0.62-2.36c-0.15-0.84-0.66-1.57-1.4-2c-9.31-5.4-19.8-10.22-31.18-14.34
		C533.31,368.14,532.98,368.09,532.64,368.09z M547.86,280.05c-1.56,0-2.85,1.24-2.9,2.8c-0.75,22.32-3.63,44.02-8.56,64.48
		c-0.35,1.45,0.45,2.92,1.85,3.42c13.96,4.94,26.61,10.76,37.62,17.3c0.46,0.27,0.97,0.41,1.48,0.41c0.97,0,1.92-0.49,2.47-1.37
		c15.66-25.24,24.98-54.27,26.94-83.94c0.05-0.8-0.23-1.59-0.78-2.18c-0.55-0.59-1.32-0.92-2.12-0.92H547.86z M244.89,280.05
		c-0.8,0-1.57,0.33-2.12,0.92c-0.55,0.59-0.83,1.37-0.78,2.18c1.96,29.67,11.27,58.69,26.93,83.93c0.55,0.88,1.5,1.37,2.47,1.37
		c0.5,0,1.01-0.13,1.48-0.41c10.99-6.52,23.65-12.34,37.62-17.28c1.4-0.5,2.2-1.97,1.85-3.42c-4.93-20.46-7.81-42.16-8.56-64.48
		c-0.05-1.56-1.33-2.8-2.9-2.8H244.89z M324.9,280.05c-0.79,0-1.54,0.32-2.09,0.89c-0.55,0.57-0.84,1.34-0.81,2.12
		c0.78,20.18,3.47,39.88,7.99,58.55c0.18,0.76,0.66,1.41,1.33,1.81c0.45,0.27,0.97,0.41,1.49,0.41c0.24,0,0.49-0.03,0.73-0.09
		c24.78-6.45,51.34-10.15,78.95-10.98c1.57-0.05,2.81-1.33,2.81-2.9v-46.91c0-1.6-1.3-2.9-2.9-2.9H324.9z M436.36,280.05
		c-1.6,0-2.9,1.3-2.9,2.9v46.91c0,1.57,1.25,2.85,2.81,2.9c27.62,0.83,54.19,4.52,78.95,10.97c0.24,0.06,0.49,0.09,0.73,0.09
		c0.52,0,1.04-0.14,1.49-0.41c0.67-0.4,1.15-1.05,1.33-1.81c4.52-18.67,7.2-38.36,7.98-58.54c0.03-0.79-0.26-1.56-0.81-2.12
		c-0.55-0.57-1.3-0.89-2.09-0.89H436.36z M577.34,173.49c-0.5,0-1.01,0.13-1.48,0.41c-10.99,6.53-23.64,12.35-37.62,17.3
		c-1.4,0.5-2.2,1.97-1.85,3.41c4.93,20.46,7.81,42.15,8.56,64.48c0.05,1.56,1.33,2.8,2.9,2.8h56c0.8,0,1.57-0.33,2.12-0.92
		c0.55-0.59,0.83-1.37,0.78-2.18c-1.96-29.67-11.28-58.7-26.94-83.94C579.26,173.97,578.32,173.49,577.34,173.49z M515.95,198.12
		c-0.24,0-0.49,0.03-0.73,0.09c-24.76,6.45-51.32,10.14-78.95,10.97c-1.57,0.05-2.81,1.33-2.81,2.9v46.91c0,1.6,1.3,2.9,2.9,2.9
		h87.5c0.79,0,1.54-0.32,2.09-0.89c0.55-0.57,0.84-1.34,0.81-2.12c-0.78-20.18-3.46-39.87-7.98-58.54
		c-0.18-0.76-0.66-1.41-1.33-1.81C516.99,198.26,516.48,198.12,515.95,198.12z M332.8,198.11c-0.52,0-1.04,0.14-1.49,0.41
		c-0.67,0.4-1.15,1.05-1.33,1.81c-4.52,18.68-7.21,38.38-7.99,58.55c-0.03,0.79,0.26,1.56,0.81,2.12c0.55,0.57,1.3,0.89,2.09,0.89
		h87.5c1.6,0,2.9-1.3,2.9-2.9v-46.91c0-1.57-1.25-2.85-2.81-2.9c-27.61-0.83-54.17-4.53-78.95-10.98
		C333.29,198.14,333.05,198.11,332.8,198.11z M271.4,173.5c-0.97,0-1.92,0.49-2.47,1.37c-15.66,25.24-24.97,54.26-26.93,83.93
		c-0.05,0.8,0.23,1.59,0.78,2.18c0.55,0.59,1.32,0.92,2.12,0.92h56c1.56,0,2.85-1.24,2.9-2.8c0.75-22.32,3.63-44.02,8.56-64.48
		c0.35-1.45-0.45-2.92-1.85-3.42c-13.99-4.95-26.65-10.76-37.62-17.28C272.41,173.63,271.9,173.5,271.4,173.5z M436.36,89.55
		c-0.65,0-1.29,0.22-1.81,0.63c-0.69,0.55-1.09,1.39-1.09,2.27v95.66c0,0.79,0.32,1.54,0.88,2.08c0.54,0.53,1.27,0.82,2.02,0.82
		c0.03,0,0.06,0,0.09,0c25.87-0.81,50.63-4.22,73.57-10.12c0.78-0.2,1.45-0.72,1.83-1.43c0.39-0.71,0.45-1.55,0.19-2.32
		C495.63,129.3,467.58,96.58,437,89.63C436.79,89.58,436.57,89.55,436.36,89.55z M412.39,89.55c-0.22,0-0.43,0.02-0.64,0.07
		c-30.57,6.95-58.62,39.67-75.03,87.51c-0.26,0.77-0.19,1.61,0.19,2.32c0.38,0.71,1.05,1.23,1.83,1.43
		c22.96,5.9,47.71,9.31,73.56,10.13c0.03,0,0.06,0,0.09,0c0.75,0,1.48-0.29,2.02-0.82c0.56-0.55,0.88-1.3,0.88-2.08V92.46
		c0-0.88-0.4-1.72-1.09-2.27C413.69,89.77,413.05,89.55,412.39,89.55z M499.03,104.43c-0.88,0-1.73,0.4-2.3,1.13
		c-0.82,1.07-0.81,2.56,0.04,3.61c13.67,16.81,24.81,37.91,33.12,62.72c0.25,0.74,0.79,1.35,1.49,1.69c0.4,0.19,0.83,0.29,1.26,0.29
		c0.33,0,0.67-0.06,0.99-0.17c11.4-4.13,21.89-8.95,31.18-14.34c0.74-0.43,1.25-1.16,1.4-2c0.15-0.84-0.07-1.7-0.62-2.36
		c-17.58-21.38-40.18-38.77-65.36-50.3C499.85,104.51,499.44,104.43,499.03,104.43z M349.72,104.43c-0.41,0-0.82,0.08-1.21,0.26
		c-25.17,11.53-47.78,28.93-65.37,50.3c-0.54,0.66-0.77,1.52-0.62,2.36c0.15,0.84,0.67,1.57,1.4,2
		c9.21,5.34,19.71,10.15,31.19,14.31c0.32,0.11,0.65,0.17,0.99,0.17c0.43,0,0.86-0.1,1.26-0.29c0.7-0.34,1.24-0.95,1.49-1.69
		c8.31-24.79,19.44-45.88,33.11-62.69c0.85-1.05,0.87-2.54,0.04-3.61C351.45,104.82,350.6,104.43,349.72,104.43z"/>
</g>
</svg>
