<?xml version="1.0" encoding="utf-8"?>
<!-- Generator: Adobe Illustrator 24.0.1, SVG Export Plug-In . SVG Version: 6.00 Build 0)  -->
<svg version="1.1" id="Layer_1" xmlns="http://www.w3.org/2000/svg" xmlns:xlink="http://www.w3.org/1999/xlink" x="0px" y="0px"
	 viewBox="0 0 850.39 850.39" style="enable-background:new 0 0 850.39 850.39;" xml:space="preserve">
<style type="text/css">
	.st0{fill:none;stroke:#000000;stroke-width:12.7695;stroke-miterlimit:10;}
	.st1{stroke:#000000;stroke-width:12.7695;stroke-miterlimit:10;}
	.st2{fill:#FFFFFF;}
</style>
<path class="st0" d="M311.57,652.48c0.37,22.74,0.74,45.47,1.11,68.21c3.35,9.8,9.77,24.71,22.16,39.9
	c12.06,14.78,24.97,23.94,33.76,29.2c39.25,0,78.5,0,117.74,0c8.74-5.17,22.05-14.51,34.1-30c10.42-13.4,16.03-26.43,19.09-35.46
	c0.3-23.94,0.61-47.89,0.91-71.83C464.15,652.5,387.86,652.49,311.57,652.48z"/>
<path class="st1" d="M310.86,607.95c76.68,0.3,153.35,0.61,230.03,0.91c11.27-36.22,25.73-62.63,37.28-80.47
	c12.61-19.49,17.2-21.72,37.28-50.46c20.94-29.98,33.85-48.45,44.1-72.74c3.85-9.11,18.4-45.32,18.18-94.1
	c-0.06-12.57-1.28-68.72-34.55-125.02C603.67,119.21,524.57,61.64,427.24,60.6c-7.62-0.08-128.84,0.68-204.12,100.01
	c-10.71,14.14-50.69,70.11-50.46,150.02c0.04,15.36,0.67,60.57,25,107.29c4.19,8.04,16.43,25.36,40.91,60.01
	c28.39,40.17,38.9,52.69,51.37,77.28C301,577,307.34,595.96,310.86,607.95z"/>
<path class="st2" d="M452.55,222.87c-0.21,82.44-0.42,164.88-0.63,247.33c-18.51-0.22-37.02-0.44-55.54-0.66
	c0.76-82.43,1.52-164.86,2.27-247.29C416.62,222.46,434.58,222.67,452.55,222.87z"/>
<path class="st2" d="M357,251.81c46.01,0,92.01,0,138.02,0c-22.62-32.59-45.24-65.18-67.86-97.76
	C403.77,186.63,380.38,219.22,357,251.81z"/>
</svg>
