<?xml version="1.0" encoding="utf-8"?>
<!-- Generator: Adobe Illustrator 24.0.1, SVG Export Plug-In . SVG Version: 6.00 Build 0)  -->
<svg version="1.1" id="Layer_1" xmlns="http://www.w3.org/2000/svg" xmlns:xlink="http://www.w3.org/1999/xlink" x="0px" y="0px"
	 viewBox="0 0 850.39 850.39" style="enable-background:new 0 0 850.39 850.39;" xml:space="preserve">
<style type="text/css">
	.st0{fill:#414042;stroke:#000000;stroke-width:1.5712;stroke-miterlimit:10;}
	.st1{fill:#414042;}
	.st2{stroke:#FFFFFF;stroke-width:10.8042;stroke-miterlimit:10;}
</style>
<g>
	<path class="st0" d="M22.07,265.34c-0.74,5.59,2.42,10.89,6.04,13.87c2.05,1.69,4.01,2.43,5.66,3.02
		c10.92,3.92,20.89,5.93,24.91,6.79c2.01,0.43,6.94,1.73,16.79,4.34c8.87,2.34,17.63,4.66,27.36,7.74
		c9.03,2.85,27.74,9.15,42.12,13.1c1.73,0.48,5.52,1.49,10.52,1.44c6.33-0.05,11.04-1.76,13.03-2.47
		c12.91-4.63,26.08-8.51,39.06-12.93c4.94-1.68,13.85-4.69,25.76-7.64c13.2-3.27,26.06-7.85,39.34-10.76
		c3.36-0.74,10.13-2.16,13.67-7.64c0.58-0.89,2.67-4.24,1.99-8.4c-0.71-4.36-4.03-6.93-5.84-8.33c-3.77-2.91-7.31-3.59-11.9-4.69
		c-5.79-1.39-11.39-3.5-17.17-4.91c-11.22-2.72-19.63-5.41-34.99-10.32c-12.21-3.91-15.25-5.27-24.64-7.99
		c-2.33-0.67-7.15-2.04-14.09-4.16c-5.38-1.64-5.27-1.67-7.98-2.46c-8.33-2.4-12.59-3.6-17.16-3.59c-4.94,0.02-8.56,1.31-11.34,2.28
		c-13.85,4.82-28.11,8.38-42.08,12.83c-11.53,3.67-22.72,7.03-29.79,9.15c-6.07,1.82-12.05,3.96-18.2,5.5
		c-15.53,3.91-25.34,4.35-29.47,11.48C22.55,262.56,22.19,264.39,22.07,265.34z"/>
	<path class="st1" d="M33.35,275.6c0.02,8.73,0.04,17.47,0.06,26.2c-0.38,0.22-7.21,4.36-7.38,12.5c-0.17,7.95,6.18,12.36,6.6,12.64
		c-2.96,14.58-5.91,29.16-8.87,43.75c4.4,0.92,9.95,1.68,16.37,1.66c7.23-0.03,13.39-1.05,18.11-2.19
		c-2.69-14.58-5.38-29.15-8.07-43.73c0.57-0.37,6.31-4.25,6.6-11.37c0.22-5.44-2.83-10.61-7.81-13.26
		c-0.17-8.87-0.33-17.74-0.5-26.61C43.44,275.33,38.39,275.46,33.35,275.6z"/>
</g>
<path class="st1" d="M20.25,565.34c-0.25-5.94-0.58-14.45-0.9-24.7c-0.98-32.01-0.41-36.24,0.45-40.04
	c4.77-20.99,19.65-34.04,21.35-35.5c22.12-18.9,50.2-16.3,56.35-15.73c4.22,0.39,7.26,1.02,9.79,1.77
	c6.21,1.86,10.78,4.02,12.22,4.74c14.21,7.11,38.21,7.05,39.21,7.04c6.7-0.06,19.06-0.16,32.88-5.69c0,0,21.38-8.55,29.17-9.2
	c4.29-0.36,8.54-0.13,8.54-0.13c3.01,0.18,23.05,1.24,37.73,12.78c11.88,9.33,15.57,21.8,19.4,35.43
	c3.78,13.46,8.6,38.65,1.37,71.83C198.64,567.07,109.45,566.21,20.25,565.34z"/>
<path class="st1" d="M152.74,270.57c-46.79,0.58-84.08,39.13-83.79,83.18c0.3,44.79,39.38,83.23,86.89,82.19
	c48.71-1.07,85.82-43.17,82.76-88.13C235.73,305.81,198.41,270,152.74,270.57z"/>
<g>
	<path class="st0" d="M562.05,265.34c-0.74,5.59,2.42,10.89,6.04,13.87c2.05,1.69,4.01,2.43,5.66,3.02
		c10.92,3.92,20.89,5.93,24.91,6.79c2.01,0.43,6.94,1.73,16.79,4.34c8.87,2.34,17.63,4.66,27.36,7.74
		c9.03,2.85,27.74,9.15,42.12,13.1c1.73,0.48,5.52,1.49,10.52,1.44c6.33-0.05,11.04-1.76,13.03-2.47
		c12.91-4.63,26.08-8.51,39.06-12.93c4.94-1.68,13.85-4.69,25.76-7.64c13.2-3.27,26.06-7.85,39.34-10.76
		c3.36-0.74,10.13-2.16,13.67-7.64c0.58-0.89,2.67-4.24,1.99-8.4c-0.71-4.36-4.03-6.93-5.84-8.33c-3.77-2.91-7.31-3.59-11.9-4.69
		c-5.79-1.39-11.39-3.5-17.17-4.91c-11.22-2.72-19.63-5.41-34.99-10.32c-12.21-3.91-15.25-5.27-24.64-7.99
		c-2.33-0.67-7.15-2.04-14.09-4.16c-5.38-1.64-5.27-1.67-7.98-2.46c-8.33-2.4-12.59-3.6-17.16-3.59c-4.94,0.02-8.56,1.31-11.34,2.28
		c-13.85,4.82-28.11,8.38-42.08,12.83c-11.53,3.67-22.72,7.03-29.79,9.15c-6.07,1.82-12.05,3.96-18.2,5.5
		c-15.53,3.91-25.34,4.35-29.47,11.48C562.53,262.56,562.18,264.39,562.05,265.34z"/>
	<path class="st1" d="M573.33,275.6c0.02,8.73,0.04,17.47,0.06,26.2c-0.38,0.22-7.21,4.36-7.38,12.5
		c-0.17,7.95,6.18,12.36,6.6,12.64c-2.96,14.58-5.91,29.16-8.87,43.75c4.4,0.92,9.95,1.68,16.37,1.66
		c7.23-0.03,13.39-1.05,18.11-2.19c-2.69-14.58-5.38-29.15-8.07-43.73c0.57-0.37,6.31-4.25,6.6-11.37
		c0.22-5.44-2.83-10.61-7.81-13.26c-0.17-8.87-0.33-17.74-0.5-26.61C583.42,275.33,578.38,275.46,573.33,275.6z"/>
</g>
<path class="st1" d="M560.24,565.34c-0.25-5.94-0.58-14.45-0.9-24.7c-0.98-32.01-0.41-36.24,0.45-40.04
	c4.77-20.99,19.65-34.04,21.35-35.5c22.12-18.9,50.2-16.3,56.35-15.73c4.22,0.39,7.26,1.02,9.79,1.77
	c6.21,1.86,10.78,4.02,12.22,4.74c14.21,7.11,38.21,7.05,39.21,7.04c6.7-0.06,19.06-0.16,32.88-5.69c0,0,21.38-8.55,29.17-9.2
	c4.29-0.36,8.54-0.13,8.54-0.13c3.01,0.18,23.05,1.24,37.73,12.78c11.88,9.33,15.57,21.8,19.4,35.43
	c3.78,13.46,8.6,38.65,1.37,71.83C738.62,567.07,649.43,566.21,560.24,565.34z"/>
<path class="st1" d="M692.72,270.57c-46.79,0.58-84.08,39.13-83.79,83.18c0.3,44.79,39.38,83.23,86.89,82.19
	c48.71-1.07,85.82-43.17,82.76-88.13C775.72,305.81,738.39,270,692.72,270.57z"/>
<path class="st2" d="M229.97,620.19c-0.35-8.32-0.81-20.25-1.26-34.63c-1.37-44.88-0.58-50.8,0.64-56.13
	c6.69-29.42,27.55-47.73,29.93-49.76c31.01-26.5,70.38-22.86,79-22.05c5.92,0.55,10.18,1.43,13.72,2.49
	c8.7,2.61,15.11,5.63,17.14,6.64c19.92,9.97,53.57,9.88,54.97,9.87c9.4-0.08,26.71-0.23,46.1-7.98c0,0,29.98-11.99,40.9-12.9
	c6.01-0.5,11.98-0.18,11.98-0.18c4.22,0.25,32.31,1.74,52.9,17.92c16.66,13.08,21.83,30.57,27.2,49.67
	c5.3,18.86,12.06,54.19,1.93,100.7C480.06,622.61,355.02,621.4,229.97,620.19z"/>
<path d="M415.71,206.93c-65.6,0.82-117.88,54.86-117.47,116.62c0.42,62.79,55.21,116.68,121.82,115.23
	c68.29-1.49,120.32-60.53,116.02-123.56C532.07,256.34,479.74,206.13,415.71,206.93z"/>
</svg>
