<?xml version="1.0" encoding="utf-8"?>
<!-- Generator: Adobe Illustrator 24.0.1, SVG Export Plug-In . SVG Version: 6.00 Build 0)  -->
<svg version="1.1" id="Layer_1" xmlns="http://www.w3.org/2000/svg" xmlns:xlink="http://www.w3.org/1999/xlink" x="0px" y="0px"
	 viewBox="0 0 850.39 850.39" style="enable-background:new 0 0 850.39 850.39;" xml:space="preserve">
<style type="text/css">
	.st0{stroke:#FFFFFF;stroke-width:1.8598;stroke-miterlimit:10;}
</style>
<g>
	<g>
		<path d="M546.25,552.28c-12.32-3.79-25.18,14.53-28.42,19.35l-15.51,29.33V486.09c-0.02-4.71-1.98-8.97-5.1-12.07
			c-3.15-3.07-7.47-4.97-12.23-4.95c-9.33,0.03-16.89,7.4-17.17,16.55v-17.88c0-9.19-7.72-16.64-17.25-16.64
			c-9.53,0-17.25,7.45-17.25,16.64v13.17c0-9.19-7.72-16.64-17.25-16.64c-9.53,0-16.94,7.56-16.94,16.75v50.08
			c-0.61-8.65-7.95-15.48-16.95-15.48c-9.4,0-16.7,7.56-16.7,16.75v68.62l0.03,63.46c0.03,8.47,1.49,16.34,3.4,23.05
			c5.29,18.76,8.23,31.65,9.09,48.84c0.34,6.35,0.11,12.76-0.61,19.09l-0.03,0.17c-0.61,5.51,2.32,10.92,7.79,13.83
			c8.86,4.8,25.27,10.61,52.43,10.51c28.76-0.1,44.32-7.33,51.92-12.75c3.98-2.81,6.28-7.02,6.26-11.46l0-0.08
			c1.34-10.47,2.27-32.45,18.3-48.68c17.03-17.91,14.77-64.19,18.46-78.05l24.03-53.37C560.06,567.4,559.55,556.37,546.25,552.28z"
			/>
		<path class="st0" d="M504.71,485.58v97.05l7.1-13.95c0.06-0.13,0.14-0.25,0.21-0.37c6.23-9.62,18.69-25.13,31.9-20.89
			c7.69,2.45,11.18,7.02,12.76,10.42c2.41,5.2,2.27,11.81-0.37,18.15l-22.9,52.73c-0.88,3.66-1.41,10.03-2.01,17.36
			c-1.67,20.2-3.96,47.86-16.54,61.58c-12.96,13.59-14.92,31.79-16.1,42.66c-0.12,1.14-0.24,2.2-0.35,3.16
			c-0.06,5.73-2.85,10.98-7.68,14.51c-8.21,6.07-23.93,13.34-52.12,13.45c-0.22,0-0.44,0-0.66,0c-26.45,0-42.63-5.95-51.58-10.96
			c-6.54-3.62-10.29-10.59-9.53-17.75c0.01-0.07,0.04-0.31,0.05-0.38c0.65-6.02,0.84-12.17,0.54-18.1
			c-0.81-16.62-3.52-29.08-8.57-47.62c-2.23-8.12-3.37-16.18-3.4-23.95l-0.02-131.16c0-11.43,9.01-20.73,20.1-20.73
			c4.54,0,8.74,1.51,12.13,4.06v-34.31c0-11.43,9.12-20.73,20.32-20.73c4.77,0,9.17,1.63,12.67,4.36
			c1.54-9.86,10.09-17.43,20.38-17.43c11.37,0,20.62,9.25,20.62,20.62v1.43c3.43-2.64,7.69-4.19,12.33-4.21
			c5.41-0.03,10.7,2.16,14.64,6.13C498.63,470.72,504.71,475.97,504.71,485.58z M385.55,519c-6.67,0-11.9,5.5-11.9,12.53
			l0.02,131.14c0.03,7.04,1.07,14.38,3.11,21.81c5.21,19.12,8.01,32.01,8.85,49.38c0.33,6.35,0.12,12.94-0.6,19.59
			c-0.01,0.06-0.04,0.3-0.05,0.37c-0.39,3.72,1.67,7.44,5.39,9.51c8.1,4.55,22.9,9.92,47.58,9.92c0.21,0,0.42,0,0.63,0
			c27.34-0.1,41.37-7.47,47.3-11.85c2.77-2.03,4.34-4.96,4.33-8.06c0-0.17,0.01-0.43,0.03-0.6c0.12-0.99,0.24-2.09,0.37-3.29
			c1.29-11.9,3.44-31.83,18.26-47.37c10.63-11.6,12.78-37.64,14.35-56.66c0.68-8.24,1.22-14.75,2.32-19.03
			c0.05-0.21,0.13-0.41,0.21-0.61l23.01-52.98c3.36-3.92,4.31-8.85,2.44-12.44c-2.55-4.89-9.19-5.09-9.78-5.1
			c-4.91-0.08-11.13,2.9-21.06,18.17c-15.02,23.11-18.09,42.95-21.21,42.52c-1.21-0.17-2.48-3.39-2.65-17.19
			c0-37.71,0-75.43,0-113.14c-0.01-3.42-1.33-6.67-3.72-9.12c-2.34-2.36-5.45-3.68-8.72-3.68c-0.01,0-0.03,0-0.04,0
			c-6.71,0.03-12.13,5.47-12.36,12.4v114.46c0,2.26-1.84,4.1-4.1,4.1c-2.26,0-4.1-1.84-4.1-4.1V467.37
			c0-6.85-5.57-12.42-12.42-12.42c-6.85,0-12.42,5.57-12.42,12.42v132.28c0,2.26-1.84,4.1-4.1,4.1c-2.26,0-4.1-1.84-4.1-4.1V480.44
			c0-6.85-5.57-12.42-12.42-12.42c-6.8,0-12.12,5.5-12.12,12.53v49.33c0.04,0.51,0.06,1.02,0.06,1.54
			c1.83,47.6,0.47,71.71-4.09,72.33c-1.16,0.16-2.53-1.2-4.1-4.09l-0.06-69.44C397.09,523.93,391.88,519,385.55,519z"/>
	</g>
	<g>
		<path d="M585.94,296.8c-3.79,12.32,14.53,25.18,19.35,28.42l29.33,15.51H519.74c-4.71,0.02-8.97,1.98-12.07,5.1
			c-3.07,3.15-4.97,7.47-4.95,12.23c0.03,9.33,7.4,16.89,16.55,17.17h-17.88c-9.19,0-16.64,7.72-16.64,17.25
			c0,9.53,7.45,17.25,16.64,17.25h13.17c-9.19,0-16.64,7.72-16.64,17.25c0,9.53,7.56,16.94,16.75,16.94h50.08
			c-8.65,0.61-15.48,7.95-15.48,16.95c0,9.4,7.56,16.7,16.75,16.7h68.62l63.46-0.03c8.47-0.03,16.34-1.49,23.05-3.4
			c18.76-5.29,31.65-8.23,48.84-9.09c6.35-0.34,12.76-0.11,19.09,0.61l0.17,0.03c5.51,0.61,10.92-2.32,13.83-7.79
			c4.8-8.86,10.61-25.27,10.51-52.43c-0.1-28.76-7.33-44.32-12.75-51.92c-2.81-3.98-7.02-6.28-11.46-6.26l-0.08,0
			c-10.47-1.34-32.45-2.27-48.68-18.3c-17.91-17.03-64.19-14.77-78.05-18.46l-53.37-24.03C601.05,283,590.03,283.5,585.94,296.8z"/>
		<path class="st0" d="M519.23,338.35h97.05l-13.95-7.1c-0.13-0.06-0.25-0.14-0.37-0.21c-9.62-6.23-25.13-18.69-20.89-31.9
			c2.45-7.69,7.02-11.18,10.42-12.76c5.2-2.41,11.81-2.27,18.15,0.37l52.73,22.9c3.66,0.88,10.03,1.41,17.36,2.01
			c20.2,1.67,47.86,3.96,61.58,16.54c13.59,12.96,31.79,14.92,42.66,16.1c1.14,0.12,2.2,0.24,3.16,0.35
			c5.73,0.06,10.98,2.85,14.51,7.68c6.07,8.21,13.34,23.93,13.45,52.12c0,0.22,0,0.44,0,0.66c0,26.45-5.95,42.63-10.96,51.58
			c-3.62,6.54-10.59,10.29-17.75,9.53c-0.07-0.01-0.31-0.04-0.38-0.05c-6.02-0.65-12.17-0.84-18.1-0.54
			c-16.62,0.81-29.08,3.52-47.62,8.57c-8.12,2.23-16.18,3.37-23.95,3.4l-131.16,0.02c-11.43,0-20.73-9.01-20.73-20.1
			c0-4.54,1.51-8.74,4.06-12.13H514.2c-11.43,0-20.73-9.12-20.73-20.32c0-4.77,1.63-9.17,4.36-12.67
			c-9.86-1.54-17.43-10.09-17.43-20.38c0-11.37,9.25-20.62,20.62-20.62h1.43c-2.64-3.43-4.19-7.69-4.21-12.33
			c-0.03-5.41,2.16-10.7,6.13-14.64C504.38,344.42,509.62,338.35,519.23,338.35z M552.65,457.5c0,6.67,5.5,11.9,12.53,11.9
			l131.14-0.02c7.04-0.03,14.38-1.07,21.81-3.11c19.12-5.21,32.01-8.01,49.38-8.85c6.35-0.33,12.94-0.12,19.59,0.6
			c0.06,0.01,0.3,0.04,0.37,0.05c3.72,0.39,7.44-1.67,9.51-5.39c4.55-8.1,9.92-22.9,9.92-47.58c0-0.21,0-0.42,0-0.63
			c-0.1-27.34-7.47-41.37-11.85-47.3c-2.03-2.77-4.96-4.34-8.06-4.33c-0.17,0-0.43-0.01-0.6-0.03c-0.99-0.12-2.09-0.24-3.29-0.37
			c-11.9-1.29-31.83-3.44-47.37-18.26c-11.6-10.63-37.64-12.78-56.66-14.35c-8.24-0.68-14.75-1.22-19.03-2.32
			c-0.21-0.05-0.41-0.13-0.61-0.21l-52.98-23.01c-3.92-3.36-8.85-4.31-12.44-2.44c-4.89,2.55-5.09,9.19-5.1,9.78
			c-0.08,4.91,2.9,11.13,18.17,21.06c23.11,15.02,42.95,18.09,42.52,21.21c-0.17,1.21-3.39,2.48-17.19,2.65
			c-37.71,0-75.43,0-113.14,0c-3.42,0.01-6.67,1.33-9.12,3.72c-2.36,2.34-3.68,5.45-3.68,8.72c0,0.01,0,0.03,0,0.04
			c0.03,6.71,5.47,12.13,12.4,12.36H633.3c2.26,0,4.1,1.84,4.1,4.1c0,2.26-1.84,4.1-4.1,4.1H501.02c-6.85,0-12.42,5.57-12.42,12.42
			c0,6.85,5.57,12.42,12.42,12.42H633.3c2.26,0,4.1,1.84,4.1,4.1c0,2.26-1.84,4.1-4.1,4.1H514.1c-6.85,0-12.42,5.57-12.42,12.42
			c0,6.8,5.5,12.12,12.53,12.12h49.33c0.51-0.04,1.02-0.06,1.54-0.06c47.6-1.83,71.71-0.47,72.33,4.09c0.16,1.16-1.2,2.53-4.09,4.1
			l-69.44,0.06C557.58,445.96,552.65,451.18,552.65,457.5z"/>
	</g>
	<g>
		<path d="M301.99,307.22c3.79,12.32-14.53,25.18-19.35,28.42l-29.33,15.51h114.88c4.71,0.02,8.97,1.98,12.07,5.1
			c3.07,3.15,4.97,7.47,4.95,12.23c-0.03,9.33-7.4,16.89-16.55,17.17h17.88c9.19,0,16.64,7.72,16.64,17.25
			c0,9.53-7.45,17.25-16.64,17.25h-13.17c9.19,0,16.64,7.72,16.64,17.25c0,9.53-7.56,16.94-16.75,16.94h-50.08
			c8.65,0.61,15.48,7.95,15.48,16.95c0,9.4-7.56,16.7-16.75,16.7h-68.62l-63.46-0.03c-8.47-0.03-16.34-1.49-23.05-3.4
			c-18.76-5.29-31.65-8.23-48.84-9.09c-6.35-0.34-12.76-0.11-19.09,0.61l-0.17,0.03c-5.51,0.61-10.92-2.32-13.83-7.79
			c-4.8-8.86-10.61-25.27-10.51-52.43c0.1-28.76,7.33-44.32,12.75-51.92c2.81-3.98,7.02-6.28,11.46-6.26l0.08,0
			c10.47-1.34,32.45-2.27,48.68-18.3c17.91-17.03,64.19-14.77,78.05-18.46l53.37-24.03C286.87,293.41,297.9,293.91,301.99,307.22z"
			/>
		<path class="st0" d="M383.55,354.83c3.97,3.94,6.16,9.23,6.13,14.64c-0.02,4.64-1.57,8.9-4.21,12.33h1.43
			c11.37,0,20.62,9.25,20.62,20.62c0,10.28-7.57,18.84-17.43,20.38c2.73,3.5,4.36,7.89,4.36,12.67c0,11.2-9.3,20.32-20.73,20.32
			h-34.31c2.55,3.39,4.06,7.59,4.06,12.13c0,11.08-9.3,20.1-20.73,20.1l-131.16-0.02c-7.77-0.03-15.83-1.17-23.95-3.4
			c-18.54-5.05-31-7.76-47.62-8.57c-5.92-0.3-12.08-0.11-18.1,0.54c-0.07,0.01-0.31,0.05-0.38,0.05
			c-7.15,0.76-14.13-2.99-17.75-9.53c-5.01-8.94-10.96-25.12-10.96-51.58c0-0.22,0-0.44,0-0.66c0.1-28.19,7.38-43.91,13.45-52.12
			c3.53-4.82,8.78-7.61,14.51-7.68c0.97-0.11,2.02-0.23,3.16-0.35c10.87-1.17,29.06-3.14,42.66-16.1
			c13.72-12.58,41.38-14.87,61.58-16.54c7.34-0.61,13.7-1.13,17.36-2.01l52.73-22.9c6.33-2.64,12.95-2.77,18.15-0.37
			c3.4,1.57,7.97,5.07,10.42,12.76c4.24,13.21-11.27,25.67-20.89,31.9c-0.12,0.08-0.24,0.15-0.37,0.21l-13.95,7.1h97.05
			C378.31,348.76,383.55,354.83,383.55,354.83z M324.05,455.78l-69.44-0.06c-2.88-1.58-4.25-2.94-4.09-4.1
			c0.62-4.56,24.73-5.93,72.33-4.09c0.52,0,1.03,0.02,1.54,0.06h49.33c7.03,0,12.53-5.32,12.53-12.12c0-6.85-5.57-12.42-12.42-12.42
			H254.62c-2.26,0-4.1-1.84-4.1-4.1c0-2.26,1.84-4.1,4.1-4.1H386.9c6.85,0,12.42-5.57,12.42-12.42c0-6.85-5.57-12.42-12.42-12.42
			H254.62c-2.26,0-4.1-1.84-4.1-4.1c0-2.26,1.84-4.1,4.1-4.1h114.46c6.93-0.23,12.37-5.65,12.4-12.36c0-0.02,0-0.03,0-0.04
			c0-3.27-1.32-6.38-3.68-8.72c-2.45-2.39-5.7-3.71-9.12-3.72c-37.71,0-75.43,0-113.14,0c-13.79-0.17-17.02-1.44-17.19-2.65
			c-0.43-3.12,19.41-6.19,42.52-21.21c15.28-9.93,18.25-16.15,18.17-21.06c-0.01-0.59-0.21-7.23-5.1-9.78
			c-3.59-1.87-8.53-0.92-12.44,2.44l-52.98,23.01c-0.2,0.09-0.4,0.16-0.61,0.21c-4.28,1.1-10.79,1.64-19.03,2.32
			c-19.02,1.57-45.06,3.73-56.66,14.35c-15.55,14.82-35.47,16.97-47.37,18.26c-1.19,0.13-2.29,0.25-3.29,0.37
			c-0.17,0.02-0.43,0.03-0.6,0.03c-3.1-0.01-6.03,1.56-8.06,4.33c-4.38,5.93-11.75,19.95-11.85,47.3c0,0.21,0,0.42,0,0.63
			c0,24.68,5.38,39.48,9.92,47.58c2.06,3.73,5.79,5.78,9.51,5.39c0.07-0.01,0.3-0.05,0.37-0.05c6.65-0.73,13.25-0.93,19.59-0.6
			c17.37,0.84,30.25,3.64,49.38,8.85c7.43,2.04,14.77,3.08,21.81,3.11l131.14,0.02c7.02,0,12.53-5.23,12.53-11.9
			C335.28,461.59,330.35,456.37,324.05,455.78z"/>
	</g>
	<path d="M339.6,253.54c12.32,3.79,25.18-14.53,28.42-19.35l15.51-29.33v114.88c0.02,4.71,1.98,8.97,5.1,12.07
		c3.15,3.07,7.47,4.97,12.23,4.95c9.33-0.03,16.89-7.4,17.17-16.55v17.88c0,9.19,7.72,16.64,17.25,16.64
		c9.53,0,17.25-7.45,17.25-16.64v-13.17c0,9.19,7.72,16.64,17.25,16.64c9.53,0,16.94-7.56,16.94-16.75v-50.08
		c0.61,8.65,7.95,15.48,16.95,15.48c9.4,0,16.7-7.56,16.7-16.75v-68.62l-0.03-63.46c-0.03-8.47-1.49-16.34-3.4-23.05
		c-5.29-18.76-8.23-31.65-9.09-48.84c-0.34-6.35-0.11-12.76,0.61-19.09l0.03-0.17c0.61-5.51-2.32-10.92-7.79-13.83
		c-8.86-4.8-25.27-10.61-52.43-10.51c-28.76,0.1-44.32,7.33-51.92,12.75c-3.98,2.81-6.28,7.02-6.26,11.46l0,0.08
		c-1.34,10.47-2.27,32.45-18.3,48.68c-17.03,17.91-14.77,64.19-18.46,78.05l-24.03,53.37C325.8,238.42,326.3,249.45,339.6,253.54z"
		/>
	<path class="st0" d="M381.15,320.25V223.2l-7.1,13.95c-0.06,0.13-0.14,0.25-0.21,0.37c-6.23,9.62-18.69,25.13-31.9,20.89
		c-7.69-2.45-11.18-7.02-12.76-10.42c-2.41-5.2-2.27-11.81,0.37-18.15l22.9-52.73c0.88-3.66,1.41-10.03,2.01-17.36
		c1.67-20.2,3.96-47.86,16.54-61.58c12.96-13.59,14.92-31.79,16.1-42.66c0.12-1.14,0.24-2.2,0.35-3.16
		c0.06-5.73,2.85-10.98,7.68-14.51c8.21-6.07,23.93-13.34,52.12-13.45c0.22,0,0.44,0,0.66,0c26.45,0,42.63,5.95,51.58,10.96
		c6.54,3.62,10.29,10.59,9.53,17.75c-0.01,0.07-0.04,0.31-0.05,0.38c-0.65,6.02-0.84,12.17-0.54,18.1
		c0.81,16.62,3.52,29.08,8.57,47.62c2.23,8.12,3.37,16.18,3.4,23.95l0.02,131.16c0,11.43-9.01,20.73-20.1,20.73
		c-4.54,0-8.74-1.51-12.13-4.06v34.31c0,11.43-9.12,20.73-20.32,20.73c-4.77,0-9.17-1.63-12.67-4.36
		c-1.54,9.86-10.09,17.43-20.38,17.43c-11.37,0-20.62-9.25-20.62-20.62v-1.43c-3.43,2.64-7.69,4.19-12.33,4.21
		c-5.41,0.03-10.7-2.16-14.64-6.13C387.22,335.1,381.15,329.86,381.15,320.25z M500.3,286.83c6.67,0,11.9-5.5,11.9-12.53
		l-0.02-131.14c-0.03-7.04-1.07-14.38-3.11-21.81c-5.21-19.12-8.01-32.01-8.85-49.38c-0.33-6.35-0.12-12.94,0.6-19.59
		c0.01-0.06,0.04-0.3,0.05-0.37c0.39-3.72-1.67-7.44-5.39-9.51c-8.1-4.55-22.9-9.92-47.58-9.92c-0.21,0-0.42,0-0.63,0
		c-27.34,0.1-41.37,7.47-47.3,11.85c-2.77,2.03-4.34,4.96-4.33,8.06c0,0.17-0.01,0.43-0.03,0.6c-0.12,0.99-0.24,2.09-0.37,3.29
		c-1.29,11.9-3.44,31.83-18.26,47.37c-10.63,11.6-12.78,37.64-14.35,56.66c-0.68,8.24-1.22,14.75-2.32,19.03
		c-0.05,0.21-0.13,0.41-0.21,0.61l-23.01,52.98c-3.36,3.92-4.31,8.85-2.44,12.44c2.55,4.89,9.19,5.09,9.78,5.1
		c4.91,0.08,11.13-2.9,21.06-18.17c15.02-23.11,18.09-42.95,21.21-42.52c1.21,0.17,2.48,3.39,2.65,17.19c0,37.71,0,75.43,0,113.14
		c0.01,3.42,1.33,6.67,3.72,9.12c2.34,2.36,5.45,3.68,8.72,3.68c0.01,0,0.03,0,0.04,0c6.71-0.03,12.13-5.47,12.36-12.4V206.17
		c0-2.26,1.84-4.1,4.1-4.1c2.26,0,4.1,1.84,4.1,4.1v132.28c0,6.85,5.57,12.42,12.42,12.42c6.85,0,12.42-5.57,12.42-12.42V206.17
		c0-2.26,1.84-4.1,4.1-4.1c2.26,0,4.1,1.84,4.1,4.1v119.21c0,6.85,5.57,12.42,12.42,12.42c6.8,0,12.12-5.5,12.12-12.53v-49.33
		c-0.04-0.51-0.06-1.02-0.06-1.54c-1.83-47.6-0.47-71.71,4.09-72.33c1.16-0.16,2.53,1.2,4.1,4.09l0.06,69.44
		C488.76,281.9,493.98,286.83,500.3,286.83z"/>
</g>
</svg>
