<?xml version="1.0" encoding="utf-8"?>
<!-- Generator: Adobe Illustrator 24.0.1, SVG Export Plug-In . SVG Version: 6.00 Build 0)  -->
<svg version="1.1" id="Layer_1" xmlns="http://www.w3.org/2000/svg" xmlns:xlink="http://www.w3.org/1999/xlink" x="0px" y="0px"
	 viewBox="0 0 850.39 850.39" style="enable-background:new 0 0 850.39 850.39;" xml:space="preserve">
<path d="M283.3,229.95c-24.57,14.13-50.38,29.5-77.45,46.31c-9.86,6.12-20.13,12.66-28.11,25.28c-10.43,16.5-12.01,35.6-12.54,42.06
	c-0.38,4.6-0.26,10.07,0,20.83c0.35,14.72,1.05,26.78,1.62,34.98c-5.07,3.05-13.5,8.08-24.06,14.15
	c-19.45,11.18-29.17,16.77-42.46,23.86c-15.98,8.52-20.73,10.49-28.92,16.99c-9.09,7.22-14.68,11.5-17.79,19.61
	c-5.36,13.97,0.43,28.44,1.21,30.33c0.53,1.29,2.38,4.83,6.07,11.93c1.75,3.36,4.32,8.26,7.28,13.75
	c13.66,25.3,29.93,54.19,29.93,54.19c12.47,22.13,29.56,53.27,53.38,88.57c5.2,7.71,13.21,19.22,26.69,22.24
	c12.33,2.76,23.34-2.9,28.92-5.86c23.87-12.69,67.36-37.74,122.34-71.79c29.72,0.16,53.96,0.73,70.57,1.21
	c37.03,1.09,60.92,2.51,94.43-1.82c32.65-4.21,41.33-9.61,44.49-11.73c26.38-17.73,31.48-51.9,32.76-65.32
	c4.36,1.07,11.37,2.24,19.82,1.21c4.29-0.52,17.6-2.15,26.69-11.32c8.12-8.19,9.43-18.92,10.31-28.71
	c1.5-16.76,2.71-41.85,0.61-74.41c6.54,0.07,24.14-0.57,32.76-12.54c2.47-3.43,3.35-6.61,4.85-19.41
	c4.45-37.89,1.78-52.95,0.11-60.35c-2.28-10.13-4.68-14.81-8.6-18.31c-7.34-6.55-17.22-6.48-21.03-6.47
	c-19.65,0.06-89-0.66-183.81-1.01c0.31,9.94,0.71,24.53,1.01,42.26c0.29,17.12,0.43,25.68,0.2,28.51
	c-0.68,8.43-3.28,40.67-29.32,63.29c-24.5,21.29-53.97,20.36-60.26,20.02c-31.52-1.73-51.82-20.25-59.25-28.11
	c-4.22-4.46-15.62-16.82-20.42-35.99c-2.62-10.46-2.2-18.65-1.94-24.69c1.19-28.21-0.72-56.47-0.26-84.69
	C283.34,275.32,283.54,255.01,283.3,229.95z"/>
<path d="M369.85,425.29c3.59-0.03,20.95-0.54,33.57-13.35c9.4-9.54,11.22-21.28,13.35-34.38c1-6.14,1.12-12.63,1.36-25.63
	c0.26-14.07-0.05-24.6-0.15-28.36c-0.33-11.88-0.61-29.31-0.3-52.17c31.57-0.06,57.06,0.13,74.31,0.3
	c43.47,0.44,45.62,0.94,67.03,0.61c9.77-0.15,26.33-0.51,49.74-0.3c16.99,0.15,32.75,0.57,51.46,7.08
	c6.86,2.39,10.29,3.58,14.56,6.27c24.28,15.3,27.94,46.7,28.21,49.34c0.28,2.75,0.36,6.08,0.53,12.74
	c0.28,11.39,0.02,20.69-0.25,26.84c10.15-4.87,71.37-34.46,102.55-59.8c5.98-4.86,14.61-12.61,16.58-24.27
	c2.08-12.3-4.31-22.79-6.88-27.1c-32.43-54.51-60.18-111.88-95.44-164.6c-3.3-4.94-10.61-15.89-23.46-19.41
	c-12.33-3.38-23.72,1.73-29.52,4.45c-23.5,11.03-68.53,36.1-125.45,71.2c-62.67,1.34-108.02,2.19-122.46,1.7
	c-2.58-0.09-10.33-0.43-19.82,2.33c-6.51,1.89-10.84,4.12-16.58,7.68c-14.22,8.83-28.86,16.96-43.27,25.48
	c-9.79,5.79-13.01,7.51-15.77,12.13c-4.4,7.36-3.09,14.86-2.43,23.86c0.95,12.95-1.3,25.94-1.34,38.93
	c-0.08,30.43,1.6,60.89,0.33,91.3c-0.25,6.01-0.89,19.23,4.55,34.58c2.3,6.49,4.79,13.28,11.02,19.61
	C347.8,424.47,364,425.33,369.85,425.29z"/>
</svg>
