<?xml version="1.0" encoding="utf-8"?>
<!-- Generator: Adobe Illustrator 24.0.1, SVG Export Plug-In . SVG Version: 6.00 Build 0)  -->
<svg version="1.1" id="Layer_1" xmlns="http://www.w3.org/2000/svg" xmlns:xlink="http://www.w3.org/1999/xlink" x="0px" y="0px"
	 viewBox="0 0 850.39 850.39" style="enable-background:new 0 0 850.39 850.39;" xml:space="preserve">
<style type="text/css">
	.st0{fill:none;stroke:#000000;stroke-width:19.971;stroke-miterlimit:10;}
	.st1{stroke:#000000;stroke-width:19.971;stroke-miterlimit:10;}
</style>
<g>
	<path d="M282.25,346.23c3.16,3.64,8,4.51,17.65,3.72c17.24-1.41,30.23-6.52,33.35-7.77c7.85-3.16,18.41-8.1,30.21-15.86
		c4.88,1.13,11.81,2.47,20.19,3.24c12.96,1.18,37.7,3.15,65.32-8.56c10.75-4.56,32.5-13.78,48.94-37.89
		c4.96-7.28,15.82-23.19,17.05-45.8c1.63-29.89-14.63-52-19.59-58.75c-35.86-48.78-116.85-59.11-169.29-25.41
		c-9.83,6.32-33.99,21.84-43.22,53.25c-2.25,7.65-9.12,34.97,3.89,62.47c5.44,11.49,12.53,19.17,17.35,23.63
		c-9.18,17.85-15.67,26.95-20.26,31.97c-1.08,1.18-4.11,4.38-4.86,9.31C278.32,338.01,279.45,343.01,282.25,346.23z"/>
	<path d="M386.16,340.93c5.89,8.37,12.17,14.89,18.13,19.97c43.01,36.73,102.42,27.48,117.85,24.6c5.7,4.31,14.43,10.14,25.92,14.89
		c15.71,6.5,47.33,15.43,55.43,2.81c2.66-4.14,2.06-9.46,1.9-10.83c-0.99-8.79-7.82-12.12-14.87-21.97
		c-2.94-4.12-6.6-10.32-9.37-19.21c5.53-5.34,15.93-16.95,21.34-35.39c7.41-25.27,0.52-46.56-1.63-52.91
		c-5.22-15.41-13.27-25.09-17.33-29.87c-12.99-15.3-28.99-22.93-36.67-26.63c-7.3-3.51-17.99-7.83-31.65-10.61
		c2.05,2.95,4.74,7.57,6.41,13.73c2.16,7.96,1.62,14.76,1,18.69c2.74,0.81,6.61,2.09,11.08,4.09c15.17,6.77,24.5,16.03,27.52,19.21
		c3.81,4.02,7.19,7.57,10.37,13.38c1.27,2.31,11.42,21.52,4.99,42.73c-2.61,8.61-6.97,14.27-11.76,20.5
		c-5.94,7.72-12.04,13-16.55,16.4c4.52,9.85,9.04,19.71,13.56,29.56c-4.57-1.47-9.88-3.58-15.55-6.69
		c-7.96-4.36-14.17-9.33-18.74-13.6c-11.08,3.84-38.75,11.69-70.79,1.94c-15.38-4.68-26.98-11.95-34.74-17.86
		c-4.61,1.38-10.39,2.71-17.14,3.33C397.56,341.88,391.2,341.54,386.16,340.93z"/>
</g>
<path class="st0" d="M277.69,387.55c-45.7,0.6-82.13,39.93-81.84,84.88c0.29,45.7,38.46,84.93,84.88,83.86
	c47.58-1.09,83.83-44.05,80.83-89.93C358.76,423.51,322.3,386.96,277.69,387.55z"/>
<path class="st1" d="M135.31,714.65c-0.26-6.46-0.62-15.72-0.95-26.88c-1.04-34.84-0.44-39.43,0.48-43.57
	c5.07-22.84,20.89-37.05,22.7-38.63c23.52-20.57,53.38-17.74,59.91-17.12c4.49,0.43,7.72,1.11,10.4,1.93
	c4.96,1.52,6.66,2.53,13,5.16c0,0,4.15,1.72,13.07,4.75c9.09,3.09,32.17,6.47,56.17-1.53c6.16-2.05,31.39-11.19,38.42-11.77
	c4.13-0.34,8.23-0.18,8.23-0.18s2.08,0.08,4.19,0.29c2.41,0.24,22.91,2.95,36.79,13.65c12.63,9.73,16.54,23.65,20.62,38.55
	c4.02,14.64,9.15,42.06,1.46,78.16C324.97,716.53,230.14,715.59,135.31,714.65z"/>
<path class="st0" d="M593.2,458.76c-35.72,0.47-64.19,31.21-63.96,66.33c0.23,35.72,30.06,66.37,66.33,65.54
	c37.18-0.85,65.51-34.43,63.17-70.28C656.56,486.87,628.07,458.31,593.2,458.76z"/>
<path class="st1" d="M486.49,717.76c-0.21-5.05-0.48-12.29-0.74-21c-0.81-27.23-0.34-30.82,0.38-34.05
	c3.96-17.85,16.33-28.95,17.74-30.19c18.38-16.08,41.71-13.87,46.82-13.38c13.46,1.29,12.45,5.43,28.43,7.94
	c17.02,2.68,31.25,0.04,47.24-2.93c20.76-3.85,22.2-6.99,33.86-6.27c2.5,0.15,19.15,1.06,31.35,10.87
	c9.87,7.94,12.94,18.54,16.12,30.13c3.14,11.44,7.15,32.87,1.14,61.08C634.71,719.23,560.6,718.49,486.49,717.76z"/>
</svg>
