<?xml version="1.0" encoding="utf-8"?>
<!-- Generator: Adobe Illustrator 24.0.1, SVG Export Plug-In . SVG Version: 6.00 Build 0)  -->
<svg version="1.1" id="Layer_1" xmlns="http://www.w3.org/2000/svg" xmlns:xlink="http://www.w3.org/1999/xlink" x="0px" y="0px"
	 viewBox="0 0 850.39 850.39" style="enable-background:new 0 0 850.39 850.39;" xml:space="preserve">
<style type="text/css">
	.st0{stroke:#000000;stroke-width:12.2853;stroke-miterlimit:10;}
</style>
<path d="M300.88,687.37c0.32,19.4,0.63,38.81,0.95,58.21c2.86,8.37,8.34,21.09,18.91,34.05c10.29,12.61,21.31,20.43,28.81,24.92
	c33.49,0,66.99,0,100.48,0c7.46-4.41,18.82-12.38,29.1-25.61c8.89-11.44,13.68-22.56,16.29-30.26c0.26-20.43,0.52-40.87,0.78-61.3
	C431.09,687.38,365.98,687.38,300.88,687.37z"/>
<path d="M300.27,649.37c65.44,0.26,130.87,0.52,196.31,0.78c9.62-30.91,21.96-53.45,31.81-68.67
	c10.76-16.63,14.68-18.54,31.81-43.06c17.87-25.58,28.89-41.35,37.63-62.08c3.28-7.78,15.7-38.68,15.52-80.31
	c-0.05-10.73-1.1-58.65-29.49-106.69c-33.72-57.06-101.22-106.2-184.29-107.08c-6.5-0.07-109.95,0.58-174.2,85.35
	c-9.14,12.07-43.26,59.83-43.06,128.03c0.04,13.11,0.57,51.69,21.34,91.56c3.57,6.86,14.02,21.64,34.92,51.21
	c24.23,34.28,33.2,44.97,43.84,65.95C291.85,622.96,297.26,639.13,300.27,649.37z"/>
<path class="st0" d="M290.49,56.45c6.93,23.97,13.85,47.95,20.78,71.92"/>
<path class="st0" d="M141.74,155.03c17.13,18.14,34.26,36.29,51.39,54.43"/>
<path class="st0" d="M638.42,144.18c-16.71,18.54-33.41,37.07-50.12,55.61"/>
<path class="st0" d="M505.47,45.84c-5.3,24.38-10.6,48.77-15.9,73.15"/>
</svg>
