<?xml version="1.0" encoding="utf-8"?>
<!-- Generator: Adobe Illustrator 24.0.1, SVG Export Plug-In . SVG Version: 6.00 Build 0)  -->
<svg version="1.1" id="Layer_1" xmlns="http://www.w3.org/2000/svg" xmlns:xlink="http://www.w3.org/1999/xlink" x="0px" y="0px"
	 viewBox="0 0 850.39 850.39" style="enable-background:new 0 0 850.39 850.39;" xml:space="preserve">
<style type="text/css">
	.st0{stroke:#000000;stroke-width:13.1168;stroke-miterlimit:10;}
	.st1{fill:none;stroke:#000000;stroke-width:13.1168;stroke-miterlimit:10;}
</style>
<path class="st0" d="M326.31,671.38c0.38,23.36,0.76,46.71,1.14,70.07c3.45,10.07,10.04,25.39,22.76,40.98
	c12.39,15.18,25.65,24.59,34.68,30c40.32,0,80.63,0,120.95,0c8.98-5.31,22.65-14.9,35.02-30.82c10.7-13.77,16.46-27.15,19.61-36.42
	c0.31-24.59,0.62-49.19,0.93-73.78C483.03,671.4,404.67,671.39,326.31,671.38z"/>
<path class="st1" d="M325.58,625.64c78.76,0.31,157.53,0.62,236.29,0.93c11.57-37.2,26.43-64.33,38.29-82.65
	c12.96-20.02,17.67-22.31,38.29-51.83c21.51-30.79,34.77-49.77,45.3-74.72c3.95-9.36,18.9-46.55,18.68-96.66
	c-0.06-12.91-1.32-70.59-35.49-128.42C626.35,123.61,545.1,64.47,445.12,63.41c-7.83-0.08-132.34,0.7-209.67,102.73
	c-11.01,14.52-52.07,72.02-51.83,154.1c0.04,15.78,0.68,62.22,25.68,110.21c4.3,8.26,16.88,26.05,42.03,61.64
	c29.16,41.26,39.96,54.12,52.77,79.39C315.45,593.85,321.96,613.32,325.58,625.64z"/>
</svg>
