<?xml version="1.0" encoding="utf-8"?>
<!-- Generator: Adobe Illustrator 24.0.1, SVG Export Plug-In . SVG Version: 6.00 Build 0)  -->
<svg version="1.1" id="Layer_1" xmlns="http://www.w3.org/2000/svg" xmlns:xlink="http://www.w3.org/1999/xlink" x="0px" y="0px"
	 viewBox="0 0 850.39 850.39" style="enable-background:new 0 0 850.39 850.39;" xml:space="preserve">
<style type="text/css">
	.st0{fill:none;stroke:#000000;stroke-width:39.2248;stroke-miterlimit:10;}
</style>
<circle class="st0" cx="264.86" cy="395.14" r="238.02"/>
<path d="M781.94,753.82l-342.07-188.2c-5.78-3.18-7.91-10.52-4.73-16.3l41.79-75.96c3.18-5.78,10.52-7.91,16.3-4.73l342.07,188.2
	c5.78,3.18,7.91,10.52,4.73,16.3l-41.79,75.96C795.06,754.87,787.73,757,781.94,753.82z"/>
<path d="M207.62,498.63c0.16,10.35,0.32,20.7,0.48,31.06c1.45,4.46,4.23,11.25,9.59,18.17c5.22,6.73,10.81,10.9,14.61,13.3
	c16.99,0,33.97,0,50.96,0c3.78-2.35,9.54-6.61,14.76-13.66c4.51-6.1,6.94-12.04,8.26-16.15c0.13-10.9,0.26-21.8,0.39-32.7
	C273.65,498.63,240.64,498.63,207.62,498.63z"/>
<path d="M207.31,478.35c33.18,0.14,66.37,0.28,99.55,0.41c4.88-16.49,11.14-28.52,16.13-36.64c5.46-8.87,7.44-9.89,16.13-22.98
	c9.06-13.65,14.65-22.06,19.08-33.12c1.66-4.15,7.96-20.64,7.87-42.85c-0.02-5.72-0.56-31.29-14.95-56.92
	c-17.1-30.44-51.33-56.66-93.45-57.13c-3.3-0.04-55.76,0.31-88.34,45.54c-4.64,6.44-21.94,31.92-21.84,68.31
	c0.02,6.99,0.29,27.58,10.82,48.85c1.81,3.66,7.11,11.55,17.71,27.32c12.29,18.29,16.83,23.99,22.23,35.19
	C203.04,464.26,205.79,472.89,207.31,478.35z"/>
</svg>
