<?xml version="1.0" encoding="utf-8"?>
<!-- Generator: Adobe Illustrator 24.0.1, SVG Export Plug-In . SVG Version: 6.00 Build 0)  -->
<svg version="1.1" id="Layer_1" xmlns="http://www.w3.org/2000/svg" xmlns:xlink="http://www.w3.org/1999/xlink" x="0px" y="0px"
	 viewBox="0 0 850.39 850.39" style="enable-background:new 0 0 850.39 850.39;" xml:space="preserve">
<style type="text/css">
	.st0{fill:none;stroke:#000000;stroke-width:29.6844;stroke-miterlimit:10;}
	.st1{fill:none;stroke:#000000;stroke-width:46.3808;stroke-miterlimit:10;}
	.st2{stroke:#000000;stroke-width:46.3819;stroke-miterlimit:10;}
</style>
<g>
	<path class="st0" d="M688.95,204.73c-40,0.52-71.88,34.95-71.63,74.29c0.25,40,33.66,74.33,74.29,73.4
		c41.64-0.95,73.37-38.56,70.75-78.71C759.9,236.2,727.99,204.22,688.95,204.73z"/>
	<path class="st1" d="M431.72,163.19c-62.5,0.82-112.31,54.6-111.92,116.07c0.4,62.5,52.6,116.14,116.07,114.69
		c65.07-1.49,114.64-60.24,110.54-122.98C542.58,212.37,492.72,162.39,431.72,163.19z"/>
	<path class="st2" d="M235.13,631.92c-0.36-8.83-0.85-21.5-1.3-36.75c-1.43-47.64-0.6-53.93,0.66-59.58
		c6.94-31.23,28.57-50.66,31.04-52.82c32.16-28.13,72.99-24.26,81.93-23.41c23.55,2.25,21.79,9.5,49.74,13.9
		c29.78,4.69,54.69,0.07,82.66-5.12c36.34-6.74,38.85-12.23,59.25-10.97c4.38,0.27,33.51,1.85,54.86,19.02
		c17.28,13.89,22.64,32.45,28.2,52.72c5.49,20.02,12.51,57.52,2,106.89C494.49,634.5,364.81,633.21,235.13,631.92z"/>
	<path d="M619.5,421.06c-0.13-6.6,34.22-16.87,72.64-15.6c25.05,0.83,47.82,1.61,69.52,16.93c33.38,23.58,48.58,70.89,36.09,86.9
		c-1.89,2.42-6.62,6.96-13.37,8.02c-7.39,1.17-15.79-2.05-20.05-8.02c-4.7-6.58-1.25-12.17-3.12-23.17c0,0-2.3-13.54-12.92-25.4
		c-10.76-12.01-39.69-21.94-68.18-16.93c-16.79,2.95-29.33,10.29-36.99,3.56c-3.85-3.38-3.04-7.33-8.91-14.26
		C626.58,424.08,619.56,424.04,619.5,421.06z"/>
	<path class="st0" d="M161.44,196.03c40,0.52,71.88,34.95,71.63,74.29c-0.25,40-33.66,74.33-74.29,73.4
		c-41.64-0.95-73.37-38.56-70.75-78.71C90.49,227.5,122.4,195.52,161.44,196.03z"/>
	<path d="M230.89,412.36c0.13-6.6-34.22-16.87-72.64-15.6c-25.05,0.83-47.82,1.61-69.52,16.93c-33.38,23.58-48.58,70.89-36.09,86.9
		c1.89,2.42,6.62,6.96,13.37,8.02c7.39,1.17,15.79-2.05,20.05-8.02c4.7-6.58,1.25-12.17,3.12-23.17c0,0,2.3-13.54,12.92-25.4
		c10.76-12.01,39.69-21.94,68.18-16.93c16.79,2.95,29.33,10.29,36.99,3.56c3.85-3.38,3.04-7.33,8.91-14.26
		C223.81,415.38,230.84,415.33,230.89,412.36z"/>
</g>
</svg>
