<?xml version="1.0" encoding="utf-8"?>
<!-- Generator: Adobe Illustrator 24.0.1, SVG Export Plug-In . SVG Version: 6.00 Build 0)  -->
<svg version="1.1" id="Layer_1" xmlns="http://www.w3.org/2000/svg" xmlns:xlink="http://www.w3.org/1999/xlink" x="0px" y="0px"
	 viewBox="0 0 850.39 850.39" style="enable-background:new 0 0 850.39 850.39;" xml:space="preserve">
<style type="text/css">
	.st0{fill:#414042;}
</style>
<g>
	<path d="M173.6,521.9c5.13,5.91,13,7.33,28.67,6.05c28.01-2.29,49.11-10.58,54.18-12.62c12.76-5.13,29.91-13.16,49.08-25.77
		c7.92,1.83,19.18,4.02,32.8,5.26c21.05,1.92,61.24,5.11,106.11-13.91c17.46-7.4,52.79-22.38,79.5-61.55
		c8.06-11.82,25.7-37.67,27.7-74.41c2.64-48.56-23.76-84.47-31.83-95.44c-58.25-79.24-189.83-96.02-275.02-41.28
		c-15.97,10.26-55.21,35.48-70.21,86.5c-3.65,12.43-14.82,56.81,6.32,101.49c8.83,18.67,20.35,31.14,28.18,38.39
		c-14.91,29-25.45,43.77-32.92,51.93c-1.75,1.91-6.68,7.12-7.9,15.12C167.21,508.55,169.06,516.67,173.6,521.9z"/>
	<path class="st0" d="M340.54,509.69c10.12,15.47,21.1,27.18,31.31,36.06c70.42,61.22,169.27,44.3,191.44,39.96
		c9.25,6.99,23.45,16.47,42.11,24.19c25.53,10.56,76.89,25.06,90.05,4.56c4.32-6.72,3.34-15.37,3.09-17.59
		c-1.61-14.28-12.71-19.69-24.15-35.69c-4.78-6.69-10.72-16.76-15.22-31.2c8.98-8.68,25.87-27.53,34.66-57.49
		c12.04-41.05,0.85-75.64-2.65-85.96c-8.48-25.03-21.56-40.75-28.16-48.52c-21.1-24.86-47.1-37.26-59.57-43.26
		c-11.86-5.71-29.22-12.72-51.41-17.23c3.33,4.79,7.7,12.3,10.42,22.3c3.51,12.93,2.63,23.97,1.62,30.36
		c4.45,1.31,10.74,3.4,18,6.64c24.65,11,39.8,26.04,44.7,31.2c6.19,6.52,11.67,12.3,16.84,21.74c2.06,3.75,18.55,34.96,8.1,69.41
		c-4.25,13.99-11.32,23.18-19.11,33.3c-9.65,12.54-19.56,21.13-26.89,26.64c7.34,16.01,14.68,32.02,22.03,48.03
		c-7.43-2.38-16.05-5.82-25.27-10.87c-12.93-7.08-23.02-15.15-30.45-22.09c-16.98,6.07-62.44,19.68-115,3.16
		c-26.69-8.39-46.24-21.74-58.62-31.93c-7.69,2.14-17.35,4.16-28.58,5C358.48,511.25,348.53,510.68,340.54,509.69z"/>
</g>
</svg>
