<?xml version="1.0" encoding="utf-8"?>
<!-- Generator: Adobe Illustrator 24.0.1, SVG Export Plug-In . SVG Version: 6.00 Build 0)  -->
<svg version="1.1" id="Layer_1" xmlns="http://www.w3.org/2000/svg" xmlns:xlink="http://www.w3.org/1999/xlink" x="0px" y="0px"
	 viewBox="0 0 56.69 56.69" style="enable-background:new 0 0 56.69 56.69;" xml:space="preserve">
<g>
	<g>
		<g>
			<path d="M28.05,3.61c-13.53,0-24.5,10.97-24.5,24.5c0,4.57,1.25,8.85,3.43,12.51L3.9,53.08l12.28-3.54
				c3.52,1.95,7.57,3.07,11.88,3.07c13.53,0,24.5-10.97,24.5-24.5C52.55,14.58,41.59,3.61,28.05,3.61z M28.33,48.55
				c-4.28,0-8.25-1.33-11.52-3.58l-6.99,2.01l1.79-7.2c-2.27-3.29-3.61-7.27-3.61-11.57c0-11.23,9.11-20.34,20.34-20.34
				c11.23,0,20.34,9.11,20.34,20.34C48.67,39.44,39.57,48.55,28.33,48.55z"/>
			<path d="M21.86,26.17c0.28-0.33,0.57-0.65,0.85-0.98c0.48-0.55,1.19-1.09,1.23-1.88c0.04-0.77-0.24-1.53-0.51-2.22
				c-0.17-0.45-0.35-0.89-0.52-1.34c-0.31-0.81-0.71-1.96-1.16-2.43c-0.61-0.65-1.65-0.78-2.48-0.39c0,0-4.81,2.31-3.33,6.93
				c0,0,2.87,13.03,17.29,15.72c0,0,5.18,0.74,6.56-2.4c0.3-0.68,0.5-1.63,0.45-2.37c-0.05-0.72-0.55-1.19-1.14-1.53
				c-0.76-0.43-1.44-0.84-2.3-1.27c-0.75-0.37-1.62-0.92-2.48-0.68c-0.63,0.18-1.09,0.75-1.52,1.21c-0.56,0.59-1.13,1.18-1.7,1.77
				C31.11,34.31,23.8,31.63,21.86,26.17z"/>
		</g>
	</g>
</g>
</svg>
